Bodoni-36-Book-Italic.ufo
<glyph name="exclam" format="2">
  <advance width="637"/>
  <unicode hex="0021"/>
  <outline>
    <contour>
      <point x="656" y="1378" type="curve" smooth="yes"/>
      <point x="616" y="1166"/>
      <point x="424" y="716"/>
      <point x="344" y="416" type="curve"/>
      <point x="332" y="416" type="line"/>
      <point x="392" y="716"/>
      <point x="420" y="1066"/>
      <point x="420" y="1318" type="curve" smooth="yes"/>
      <point x="420" y="1430"/>
      <point x="450" y="1516"/>
      <point x="548" y="1516" type="curve" smooth="yes"/>
      <point x="618" y="1516"/>
      <point x="672" y="1460"/>
    </contour>
    <contour>
      <point x="140" y="98" type="curve" smooth="yes"/>
      <point x="140" y="164"/>
      <point x="192" y="216"/>
      <point x="258" y="216" type="curve" smooth="yes"/>
      <point x="324" y="216"/>
      <point x="376" y="164"/>
      <point x="376" y="98" type="curve" smooth="yes"/>
      <point x="376" y="32"/>
      <point x="324" y="-20"/>
      <point x="258" y="-20" type="curve" smooth="yes"/>
      <point x="192" y="-20"/>
      <point x="140" y="32"/>
    </contour>
  </outline>
</glyph>
<glyph name="numbersign" format="2">
  <advance width="1259"/>
  <unicode hex="0023"/>
  <outline>
    <contour>
      <point x="132" y="506" type="line"/>
      <point x="1212" y="506" type="line"/>
      <point x="1212" y="494" type="line"/>
      <point x="132" y="494" type="line"/>
    </contour>
    <contour>
      <point x="232" y="1036" type="line"/>
      <point x="1312" y="1036" type="line"/>
      <point x="1312" y="1024" type="line"/>
      <point x="232" y="1024" type="line"/>
    </contour>
    <contour>
      <point x="1096" y="1508" type="line"/>
      <point x="1108" y="1510" type="line"/>
      <point x="758" y="-10" type="line"/>
      <point x="746" y="-12" type="line"/>
    </contour>
    <contour>
      <point x="696" y="1510" type="line"/>
      <point x="708" y="1510" type="line"/>
      <point x="358" y="-10" type="line"/>
      <point x="346" y="-10" type="line"/>
    </contour>
  </outline>
</glyph>
<glyph name="asterisk" format="2">
  <advance width="1269"/>
  <unicode hex="002A"/>
  <outline>
    <contour>
      <point x="514" y="1334" type="curve" smooth="yes"/>
      <point x="632" y="1240"/>
      <point x="566" y="1154"/>
      <point x="756" y="1044" type="curve"/>
      <point x="750" y="1034" type="line"/>
      <point x="560" y="1144"/>
      <point x="552" y="1084"/>
      <point x="412" y="1142" type="curve" smooth="yes"/>
      <point x="334" y="1176"/>
      <point x="288" y="1250"/>
      <point x="324" y="1314" type="curve" smooth="yes"/>
      <point x="362" y="1384"/>
      <point x="446" y="1378"/>
    </contour>
    <contour>
      <point x="310" y="914" type="curve" smooth="yes"/>
      <point x="450" y="970"/>
      <point x="560" y="934"/>
      <point x="750" y="1044" type="curve"/>
      <point x="756" y="1034" type="line"/>
      <point x="566" y="924"/>
      <point x="526" y="838"/>
      <point x="408" y="744" type="curve" smooth="yes"/>
      <point x="344" y="700"/>
      <point x="262" y="678"/>
      <point x="222" y="750" type="curve" smooth="yes"/>
      <point x="186" y="814"/>
      <point x="234" y="882"/>
    </contour>
    <contour>
      <point x="584" y="654" type="curve" smooth="yes"/>
      <point x="626" y="804"/>
      <point x="718" y="860"/>
      <point x="748" y="1040" type="curve"/>
      <point x="760" y="1040" type="line"/>
      <point x="720" y="820"/>
      <point x="780" y="804"/>
      <point x="780" y="654" type="curve" smooth="yes"/>
      <point x="780" y="560"/>
      <point x="738" y="496"/>
      <point x="668" y="496" type="curve" smooth="yes"/>
      <point x="598" y="496"/>
      <point x="558" y="564"/>
    </contour>
    <contour>
      <point x="998" y="752" type="curve" smooth="yes"/>
      <point x="880" y="846"/>
      <point x="940" y="924"/>
      <point x="750" y="1034" type="curve"/>
      <point x="756" y="1044" type="line"/>
      <point x="946" y="934"/>
      <point x="956" y="994"/>
      <point x="1096" y="938" type="curve" smooth="yes"/>
      <point x="1174" y="904"/>
      <point x="1220" y="830"/>
      <point x="1184" y="766" type="curve" smooth="yes"/>
      <point x="1146" y="698"/>
      <point x="1062" y="710"/>
    </contour>
    <contour>
      <point x="1198" y="1166" type="curve" smooth="yes"/>
      <point x="1058" y="1110"/>
      <point x="946" y="1142"/>
      <point x="756" y="1032" type="curve"/>
      <point x="750" y="1044" type="line"/>
      <point x="940" y="1154"/>
      <point x="982" y="1242"/>
      <point x="1100" y="1336" type="curve" smooth="yes"/>
      <point x="1164" y="1380"/>
      <point x="1246" y="1402"/>
      <point x="1286" y="1330" type="curve" smooth="yes"/>
      <point x="1322" y="1266"/>
      <point x="1274" y="1198"/>
    </contour>
    <contour>
      <point x="924" y="1426" type="curve" smooth="yes"/>
      <point x="882" y="1276"/>
      <point x="790" y="1220"/>
      <point x="760" y="1040" type="curve"/>
      <point x="748" y="1040" type="line"/>
      <point x="788" y="1260"/>
      <point x="728" y="1276"/>
      <point x="728" y="1426" type="curve" smooth="yes"/>
      <point x="728" y="1520"/>
      <point x="770" y="1584"/>
      <point x="840" y="1584" type="curve" smooth="yes"/>
      <point x="910" y="1584"/>
      <point x="950" y="1516"/>
    </contour>
  </outline>
</glyph>
<glyph name="comma" format="2">
  <advance width="429"/>
  <unicode hex="002C"/>
  <outline>
    <contour>
      <point x="20" y="92" type="curve" smooth="yes"/>
      <point x="20" y="158"/>
      <point x="78" y="216"/>
      <point x="154" y="216" type="curve" smooth="yes"/>
      <point x="232" y="216"/>
      <point x="288" y="168"/>
      <point x="288" y="62" type="curve" smooth="yes"/>
      <point x="288" y="-118"/>
      <point x="106" y="-312"/>
      <point x="-74" y="-312" type="curve"/>
      <point x="-74" y="-300" type="line"/>
      <point x="84" y="-300"/>
      <point x="282" y="-118"/>
      <point x="270" y="82" type="curve"/>
      <point x="264" y="28"/>
      <point x="220" y="-20"/>
      <point x="144" y="-20" type="curve" smooth="yes"/>
      <point x="58" y="-20"/>
      <point x="20" y="32"/>
    </contour>
  </outline>
</glyph>
<glyph name="two" format="2">
  <advance width="1099"/>
  <unicode hex="0032"/>
  <outline>
    <contour>
      <point x="198" y="1072" type="curve"/>
      <point x="210" y="1114"/>
      <point x="248" y="1164"/>
      <point x="318" y="1164" type="curve" smooth="yes"/>
      <point x="376" y="1164"/>
      <point x="436" y="1122"/>
      <point x="436" y="1052" type="curve" smooth="yes"/>
      <point x="436" y="972"/>
      <point x="380" y="924"/>
      <point x="310" y="924" type="curve" smooth="yes"/>
      <point x="240" y="924"/>
      <point x="182" y="974"/>
      <point x="182" y="1058" type="curve" smooth="yes"/>
      <point x="182" y="1292"/>
      <point x="396" y="1520"/>
      <point x="670" y="1520" type="curve" smooth="yes"/>
      <point x="912" y="1520"/>
      <point x="1074" y="1400"/>
      <point x="1074" y="1200" type="curve" smooth="yes"/>
      <point x="1074" y="1000"/>
      <point x="812" y="808"/>
      <point x="694" y="714" type="curve" smooth="yes"/>
      <point x="28" y="180" type="line"/>
      <point x="854" y="180" type="line"/>
      <point x="886" y="330" type="line"/>
      <point x="898" y="330" type="line"/>
      <point x="828" y="0" type="line"/>
      <point x="-82" y="0" type="line"/>
      <point x="-54" y="130" type="line"/>
      <point x="520" y="592" type="line" smooth="yes"/>
      <point x="702" y="740"/>
      <point x="874" y="972"/>
      <point x="874" y="1160" type="curve" smooth="yes"/>
      <point x="874" y="1368"/>
      <point x="798" y="1494"/>
      <point x="622" y="1494" type="curve" smooth="yes"/>
      <point x="400" y="1494"/>
      <point x="202" y="1278"/>
    </contour>
  </outline>
</glyph>
<glyph name="three" format="2">
  <advance width="1041"/>
  <unicode hex="0033"/>
  <outline>
    <contour>
      <point x="290" y="1220" type="curve" smooth="yes"/>
      <point x="290" y="1364"/>
      <point x="458" y="1518"/>
      <point x="702" y="1518" type="curve" smooth="yes"/>
      <point x="884" y="1518"/>
      <point x="1062" y="1462"/>
      <point x="1062" y="1242" type="curve" smooth="yes"/>
      <point x="1062" y="1042"/>
      <point x="898" y="810"/>
      <point x="436" y="810" type="curve"/>
      <point x="436" y="820" type="line"/>
      <point x="754" y="820"/>
      <point x="860" y="1082"/>
      <point x="860" y="1242" type="curve" smooth="yes"/>
      <point x="860" y="1406"/>
      <point x="806" y="1498"/>
      <point x="648" y="1498" type="curve" smooth="yes"/>
      <point x="488" y="1498"/>
      <point x="334" y="1390"/>
      <point x="310" y="1266" type="curve"/>
      <point x="318" y="1286"/>
      <point x="356" y="1318"/>
      <point x="404" y="1318" type="curve" smooth="yes"/>
      <point x="462" y="1318"/>
      <point x="518" y="1278"/>
      <point x="518" y="1208" type="curve" smooth="yes"/>
      <point x="518" y="1128"/>
      <point x="454" y="1096"/>
      <point x="404" y="1096" type="curve" smooth="yes"/>
      <point x="344" y="1096"/>
      <point x="290" y="1138"/>
    </contour>
    <contour>
      <point x="10" y="272" type="curve" smooth="yes"/>
      <point x="10" y="354"/>
      <point x="60" y="402"/>
      <point x="130" y="402" type="curve" smooth="yes"/>
      <point x="190" y="402"/>
      <point x="238" y="362"/>
      <point x="238" y="290" type="curve" smooth="yes"/>
      <point x="238" y="226"/>
      <point x="182" y="180"/>
      <point x="124" y="180" type="curve" smooth="yes"/>
      <point x="70" y="180"/>
      <point x="36" y="214"/>
      <point x="28" y="250" type="curve"/>
      <point x="32" y="110"/>
      <point x="176" y="-2"/>
      <point x="398" y="-2" type="curve" smooth="yes"/>
      <point x="636" y="-2"/>
      <point x="760" y="240"/>
      <point x="760" y="460" type="curve" smooth="yes"/>
      <point x="760" y="624"/>
      <point x="714" y="808"/>
      <point x="436" y="808" type="curve"/>
      <point x="436" y="818" type="line"/>
      <point x="858" y="818"/>
      <point x="962" y="680"/>
      <point x="962" y="460" type="curve" smooth="yes"/>
      <point x="962" y="200"/>
      <point x="704" y="-20"/>
      <point x="422" y="-20" type="curve" smooth="yes"/>
      <point x="138" y="-20"/>
      <point x="10" y="128"/>
    </contour>
  </outline>
</glyph>
<glyph name="five" format="2">
  <advance width="1000"/>
  <unicode hex="0035"/>
  <outline>
    <contour>
      <point x="940" y="560" type="curve" smooth="yes"/>
      <point x="940" y="260"/>
      <point x="654" y="-20"/>
      <point x="352" y="-20" type="curve" smooth="yes"/>
      <point x="148" y="-20"/>
      <point x="0" y="114"/>
      <point x="0" y="258" type="curve" smooth="yes"/>
      <point x="0" y="340"/>
      <point x="54" y="382"/>
      <point x="114" y="382" type="curve" smooth="yes"/>
      <point x="164" y="382"/>
      <point x="228" y="350"/>
      <point x="228" y="270" type="curve" smooth="yes"/>
      <point x="228" y="200"/>
      <point x="172" y="160"/>
      <point x="114" y="160" type="curve" smooth="yes"/>
      <point x="60" y="160"/>
      <point x="26" y="190"/>
      <point x="18" y="222" type="curve"/>
      <point x="34" y="104"/>
      <point x="164" y="-6"/>
      <point x="332" y="-6" type="curve" smooth="yes"/>
      <point x="590" y="-6"/>
      <point x="730" y="332"/>
      <point x="730" y="560" type="curve" smooth="yes"/>
      <point x="730" y="748"/>
      <point x="674" y="924"/>
      <point x="516" y="924" type="curve" smooth="yes"/>
      <point x="360" y="924"/>
      <point x="222" y="856"/>
      <point x="152" y="754" type="curve"/>
      <point x="140" y="754" type="line"/>
      <point x="212" y="868"/>
      <point x="362" y="940"/>
      <point x="544" y="940" type="curve" smooth="yes"/>
      <point x="786" y="940"/>
      <point x="940" y="820"/>
    </contour>
    <contour>
      <point x="1050" y="1320" type="line"/>
      <point x="344" y="1320" type="line"/>
      <point x="146" y="754" type="line"/>
      <point x="134" y="754" type="line"/>
      <point x="394" y="1500" type="line"/>
      <point x="1074" y="1500" type="line"/>
      <point x="1098" y="1610" type="line"/>
      <point x="1110" y="1610" type="line"/>
    </contour>
  </outline>
</glyph>
<glyph name="six" format="2">
  <advance width="2292"/>
  <unicode hex="0036"/>
  <outline>
    <contour>
      <point x="1802" y="1228" type="curve" smooth="yes"/>
      <point x="1802" y="1654"/>
      <point x="1712" y="1946"/>
      <point x="1470" y="1946" type="curve" smooth="yes"/>
      <point x="912" y="1946"/>
      <point x="614" y="1146"/>
      <point x="614" y="696" type="curve"/>
      <point x="594" y="696" type="line"/>
      <point x="594" y="1176"/>
      <point x="900" y="2008"/>
      <point x="1560" y="2008" type="curve" smooth="yes"/>
      <point x="1892" y="2008"/>
      <point x="2212" y="1802"/>
      <point x="2212" y="1228" type="curve" smooth="yes"/>
      <point x="2212" y="614"/>
      <point x="1618" y="-40"/>
      <point x="1000" y="-40" type="curve" smooth="yes"/>
      <point x="546" y="-40"/>
      <point x="204" y="246"/>
      <point x="204" y="902" type="curve" smooth="yes"/>
      <point x="204" y="1774"/>
      <point x="1154" y="3112"/>
      <point x="2314" y="3112" type="curve"/>
      <point x="2314" y="3092" type="line"/>
      <point x="1422" y="3092"/>
      <point x="622" y="1800"/>
      <point x="622" y="902" type="curve"/>
      <point x="614" y="696" type="line"/>
      <point x="614" y="310"/>
      <point x="730" y="-16"/>
      <point x="1012" y="-16" type="curve" smooth="yes"/>
      <point x="1458" y="-16"/>
      <point x="1802" y="720"/>
    </contour>
  </outline>
</glyph>
<glyph name="seven" format="2">
  <advance width="1009"/>
  <unicode hex="0037"/>
  <outline>
    <contour>
      <point x="296" y="132" type="curve" smooth="yes"/>
      <point x="296" y="286"/>
      <point x="520" y="574"/>
      <point x="678" y="796" type="curve" smooth="yes"/>
      <point x="770" y="928"/>
      <point x="932" y="1150"/>
      <point x="1054" y="1310" type="curve"/>
      <point x="274" y="1310" type="line"/>
      <point x="240" y="1160" type="line"/>
      <point x="228" y="1160" type="line"/>
      <point x="300" y="1500" type="line"/>
      <point x="1210" y="1500" type="line"/>
      <point x="1210" y="1500"/>
      <point x="870" y="1048"/>
      <point x="692" y="796" type="curve" smooth="yes"/>
      <point x="558" y="608"/>
      <point x="414" y="430"/>
      <point x="414" y="340" type="curve" smooth="yes"/>
      <point x="414" y="238"/>
      <point x="556" y="258"/>
      <point x="556" y="116" type="curve" smooth="yes"/>
      <point x="556" y="42"/>
      <point x="508" y="-20"/>
      <point x="420" y="-20" type="curve" smooth="yes"/>
      <point x="352" y="-20"/>
      <point x="296" y="34"/>
    </contour>
  </outline>
</glyph>
<glyph name="eight" format="2">
  <advance width="1099"/>
  <unicode hex="0038"/>
  <outline>
    <contour>
      <point x="440" y="1060" type="curve" smooth="yes"/>
      <point x="440" y="920"/>
      <point x="472" y="768"/>
      <point x="610" y="768" type="curve" smooth="yes"/>
      <point x="788" y="768"/>
      <point x="900" y="960"/>
      <point x="900" y="1180" type="curve" smooth="yes"/>
      <point x="900" y="1320"/>
      <point x="868" y="1508"/>
      <point x="730" y="1508" type="curve" smooth="yes"/>
      <point x="552" y="1508"/>
      <point x="440" y="1280"/>
    </contour>
    <contour>
      <point x="240" y="1050" type="curve" smooth="yes"/>
      <point x="240" y="1290"/>
      <point x="448" y="1520"/>
      <point x="730" y="1520" type="curve" smooth="yes"/>
      <point x="972" y="1520"/>
      <point x="1100" y="1350"/>
      <point x="1100" y="1190" type="curve" smooth="yes"/>
      <point x="1100" y="950"/>
      <point x="892" y="760"/>
      <point x="610" y="760" type="curve" smooth="yes"/>
      <point x="368" y="760"/>
      <point x="240" y="890"/>
    </contour>
    <contour>
      <point x="260" y="320" type="curve" smooth="yes"/>
      <point x="260" y="140"/>
      <point x="332" y="-8"/>
      <point x="490" y="-8" type="curve" smooth="yes"/>
      <point x="688" y="-8"/>
      <point x="800" y="220"/>
      <point x="800" y="440" type="curve" smooth="yes"/>
      <point x="800" y="620"/>
      <point x="728" y="756"/>
      <point x="570" y="756" type="curve" smooth="yes"/>
      <point x="372" y="756"/>
      <point x="260" y="540"/>
    </contour>
    <contour>
      <point x="60" y="300" type="curve" smooth="yes"/>
      <point x="60" y="540"/>
      <point x="228" y="766"/>
      <point x="570" y="766" type="curve" smooth="yes"/>
      <point x="852" y="766"/>
      <point x="1000" y="660"/>
      <point x="1000" y="460" type="curve" smooth="yes"/>
      <point x="1000" y="220"/>
      <point x="832" y="-20"/>
      <point x="490" y="-20" type="curve" smooth="yes"/>
      <point x="208" y="-20"/>
      <point x="60" y="100"/>
    </contour>
  </outline>
</glyph>
<glyph name="question" format="2">
  <advance width="1099"/>
  <unicode hex="003F"/>
  <outline>
    <contour>
      <point x="576" y="682" type="curve"/>
      <point x="520" y="418" type="line"/>
      <point x="508" y="418" type="line"/>
      <point x="566" y="690" type="line"/>
      <point x="800" y="752"/>
      <point x="988" y="974"/>
      <point x="988" y="1220" type="curve" smooth="yes"/>
      <point x="988" y="1368"/>
      <point x="950" y="1506"/>
      <point x="772" y="1506" type="curve" smooth="yes"/>
      <point x="532" y="1506"/>
      <point x="364" y="1342"/>
      <point x="358" y="1210" type="curve"/>
      <point x="364" y="1244"/>
      <point x="400" y="1280"/>
      <point x="454" y="1280" type="curve" smooth="yes"/>
      <point x="512" y="1280"/>
      <point x="568" y="1240"/>
      <point x="568" y="1170" type="curve" smooth="yes"/>
      <point x="568" y="1090"/>
      <point x="504" y="1058"/>
      <point x="454" y="1058" type="curve" smooth="yes"/>
      <point x="394" y="1058"/>
      <point x="340" y="1100"/>
      <point x="340" y="1182" type="curve" smooth="yes"/>
      <point x="340" y="1346"/>
      <point x="528" y="1520"/>
      <point x="792" y="1520" type="curve" smooth="yes"/>
      <point x="1014" y="1520"/>
      <point x="1190" y="1420"/>
      <point x="1190" y="1180" type="curve" smooth="yes"/>
      <point x="1190" y="910"/>
      <point x="886" y="698"/>
    </contour>
    <component base="period" xOffset="298"/>
  </outline>
</glyph>
<glyph name="at" format="2">
  <advance width="2019"/>
  <unicode hex="0040"/>
  <outline>
    <contour>
      <point x="1234" y="696" type="curve" smooth="yes"/>
      <point x="1234" y="404"/>
      <point x="1068" y="140"/>
      <point x="868" y="140" type="curve" smooth="yes"/>
      <point x="710" y="140"/>
      <point x="568" y="252"/>
      <point x="568" y="460" type="curve" smooth="yes"/>
      <point x="568" y="760"/>
      <point x="798" y="1058"/>
      <point x="1036" y="1058" type="curve" smooth="yes"/>
      <point x="1198" y="1058"/>
      <point x="1234" y="860"/>
    </contour>
    <contour>
      <point x="1226" y="692" type="curve" smooth="yes"/>
      <point x="1226" y="776"/>
      <point x="1216" y="1040"/>
      <point x="1052" y="1040" type="curve" smooth="yes"/>
      <point x="904" y="1040"/>
      <point x="770" y="696"/>
      <point x="770" y="448" type="curve" smooth="yes"/>
      <point x="770" y="314"/>
      <point x="800" y="158"/>
      <point x="896" y="158" type="curve" smooth="yes"/>
      <point x="1062" y="158"/>
      <point x="1226" y="420"/>
    </contour>
    <contour>
      <point x="1180" y="420" type="curve" smooth="yes"/>
      <point x="1324" y="1040" type="line"/>
      <point x="1504" y="1040" type="line"/>
      <point x="1360" y="420" type="line" smooth="yes"/>
      <point x="1354" y="394"/>
      <point x="1264" y="156"/>
      <point x="1418" y="156" type="curve" smooth="yes"/>
      <point x="1704" y="156"/>
      <point x="1898" y="486"/>
      <point x="1898" y="802" type="curve" smooth="yes"/>
      <point x="1898" y="1162"/>
      <point x="1668" y="1568"/>
      <point x="1168" y="1568" type="curve" smooth="yes"/>
      <point x="592" y="1568"/>
      <point x="122" y="1042"/>
      <point x="122" y="422" type="curve" smooth="yes"/>
      <point x="122" y="-198"/>
      <point x="480" y="-416"/>
      <point x="838" y="-416" type="curve" smooth="yes"/>
      <point x="1164" y="-416"/>
      <point x="1390" y="-316"/>
      <point x="1560" y="-120" type="curve"/>
      <point x="1570" y="-128" type="line"/>
      <point x="1402" y="-324"/>
      <point x="1164" y="-428"/>
      <point x="838" y="-428" type="curve" smooth="yes"/>
      <point x="472" y="-428"/>
      <point x="110" y="-206"/>
      <point x="110" y="422" type="curve" smooth="yes"/>
      <point x="110" y="1048"/>
      <point x="584" y="1580"/>
      <point x="1170" y="1580" type="curve" smooth="yes"/>
      <point x="1676" y="1580"/>
      <point x="1910" y="1168"/>
      <point x="1910" y="802" type="curve" smooth="yes"/>
      <point x="1910" y="482"/>
      <point x="1724" y="136"/>
      <point x="1382" y="136" type="curve" smooth="yes"/>
      <point x="1204" y="136"/>
      <point x="1152" y="296"/>
    </contour>
  </outline>
</glyph>
<glyph name="A" format="2">
  <advance width="1449"/>
  <unicode hex="0041"/>
  <outline>
    <contour>
      <point x="-90" y="12" type="line"/>
      <point x="350" y="12" type="line"/>
      <point x="350" y="0" type="line"/>
      <point x="-90" y="0" type="line"/>
    </contour>
    <contour>
      <point x="730" y="12" type="line"/>
      <point x="1310" y="12" type="line"/>
      <point x="1310" y="0" type="line"/>
      <point x="730" y="0" type="line"/>
    </contour>
    <contour>
      <point x="376" y="496" type="line"/>
      <point x="1030" y="496" type="line"/>
      <point x="1030" y="484" type="line"/>
      <point x="376" y="484" type="line"/>
    </contour>
    <contour>
      <point x="832" y="1268" type="line"/>
      <point x="100" y="0" type="line"/>
      <point x="86" y="0" type="line"/>
      <point x="968" y="1530" type="line"/>
      <point x="980" y="1530" type="line"/>
      <point x="1170" y="0" type="line"/>
      <point x="960" y="0" type="line"/>
    </contour>
  </outline>
</glyph>
<glyph name="B" format="2">
  <advance width="1250"/>
  <unicode hex="0042"/>
  <outline>
    <contour>
      <point x="530" y="0" type="curve" smooth="yes"/>
      <point x="-90" y="0" type="line"/>
      <point x="-90" y="12" type="line"/>
      <point x="530" y="12" type="line" smooth="yes"/>
      <point x="772" y="12"/>
      <point x="930" y="262"/>
      <point x="930" y="520" type="curve" smooth="yes"/>
      <point x="930" y="698"/>
      <point x="834" y="764"/>
      <point x="682" y="764" type="curve" smooth="yes"/>
      <point x="430" y="764" type="line"/>
      <point x="430" y="774" type="line"/>
      <point x="702" y="774" type="line" smooth="yes"/>
      <point x="984" y="774"/>
      <point x="1150" y="680"/>
      <point x="1150" y="480" type="curve" smooth="yes"/>
      <point x="1150" y="180"/>
      <point x="872" y="0"/>
    </contour>
    <contour>
      <point x="440" y="1500" type="line"/>
      <point x="630" y="1500" type="line"/>
      <point x="280" y="0" type="line"/>
      <point x="90" y="0" type="line"/>
    </contour>
    <contour>
      <point x="670" y="766" type="curve" smooth="yes"/>
      <point x="430" y="766" type="line"/>
      <point x="430" y="776" type="line"/>
      <point x="670" y="776" type="line" smooth="yes"/>
      <point x="822" y="776"/>
      <point x="1060" y="932"/>
      <point x="1060" y="1230" type="curve" smooth="yes"/>
      <point x="1060" y="1368"/>
      <point x="992" y="1488"/>
      <point x="820" y="1488" type="curve" smooth="yes"/>
      <point x="260" y="1488" type="line"/>
      <point x="260" y="1500" type="line"/>
      <point x="820" y="1500" type="line" smooth="yes"/>
      <point x="1142" y="1500"/>
      <point x="1260" y="1410"/>
      <point x="1260" y="1210" type="curve" smooth="yes"/>
      <point x="1260" y="970"/>
      <point x="992" y="766"/>
    </contour>
  </outline>
</glyph>
<glyph name="C" format="2">
  <advance width="1325"/>
  <unicode hex="0043"/>
  <outline>
    <contour>
      <point x="620" y="-20" type="curve" smooth="yes"/>
      <point x="314" y="-20"/>
      <point x="110" y="184"/>
      <point x="110" y="510" type="curve" smooth="yes"/>
      <point x="110" y="1056"/>
      <point x="514" y="1520"/>
      <point x="980" y="1520" type="curve" smooth="yes"/>
      <point x="1216" y="1520"/>
      <point x="1396" y="1376"/>
      <point x="1360" y="1090" type="curve"/>
      <point x="1348" y="1090" type="line"/>
      <point x="1384" y="1362"/>
      <point x="1212" y="1504"/>
      <point x="1000" y="1504" type="curve" smooth="yes"/>
      <point x="572" y="1504"/>
      <point x="330" y="854"/>
      <point x="330" y="390" type="curve" smooth="yes"/>
      <point x="330" y="186"/>
      <point x="432" y="-4"/>
      <point x="640" y="-4" type="curve" smooth="yes"/>
      <point x="908" y="-4"/>
      <point x="1124" y="180"/>
      <point x="1208" y="410" type="curve"/>
      <point x="1220" y="410" type="line"/>
      <point x="1140" y="164"/>
      <point x="906" y="-20"/>
    </contour>
    <contour>
      <point x="1348" y="1090" type="line"/>
      <point x="1358" y="1148" type="line"/>
      <point x="1360" y="1220"/>
      <point x="1342" y="1310"/>
      <point x="1308" y="1358" type="curve"/>
      <point x="1446" y="1500" type="line"/>
      <point x="1456" y="1500" type="line"/>
      <point x="1360" y="1090" type="line"/>
    </contour>
    <contour>
      <point x="1208" y="410" type="line"/>
      <point x="1220" y="410" type="line"/>
      <point x="1110" y="0" type="line"/>
      <point x="1100" y="0" type="line"/>
      <point x="1040" y="140" type="line"/>
      <point x="1080" y="180"/>
      <point x="1146" y="248"/>
      <point x="1186" y="334" type="curve"/>
    </contour>
  </outline>
</glyph>
<glyph name="D" format="2">
  <advance width="1389"/>
  <unicode hex="0044"/>
  <outline>
    <contour>
      <point x="450" y="1500" type="line"/>
      <point x="640" y="1500" type="line"/>
      <point x="300" y="0" type="line"/>
      <point x="110" y="0" type="line"/>
    </contour>
    <contour>
      <point x="500" y="0" type="curve" smooth="yes"/>
      <point x="-70" y="0" type="line"/>
      <point x="-70" y="12" type="line"/>
      <point x="500" y="12" type="line" smooth="yes"/>
      <point x="928" y="12"/>
      <point x="1170" y="646"/>
      <point x="1170" y="1070" type="curve" smooth="yes"/>
      <point x="1170" y="1254"/>
      <point x="1088" y="1488"/>
      <point x="840" y="1488" type="curve" smooth="yes"/>
      <point x="250" y="1488" type="line"/>
      <point x="250" y="1500" type="line"/>
      <point x="840" y="1500" type="line" smooth="yes"/>
      <point x="1166" y="1500"/>
      <point x="1390" y="1316"/>
      <point x="1390" y="990" type="curve" smooth="yes"/>
      <point x="1390" y="444"/>
      <point x="986" y="0"/>
    </contour>
  </outline>
</glyph>
<glyph name="E" format="2">
  <advance width="1147"/>
  <unicode hex="0045"/>
  <outline>
    <contour>
      <point x="248" y="1500" type="line"/>
      <point x="1298" y="1500" type="line"/>
      <point x="1202" y="1090" type="line"/>
      <point x="1190" y="1090" type="line"/>
      <point x="1240" y="1304"/>
      <point x="1182" y="1488"/>
      <point x="948" y="1488" type="curve" smooth="yes"/>
      <point x="248" y="1488" type="line"/>
    </contour>
    <contour>
      <point x="428" y="1500" type="line"/>
      <point x="618" y="1500" type="line"/>
      <point x="270" y="0" type="line"/>
      <point x="80" y="0" type="line"/>
    </contour>
    <contour>
      <point x="566" y="770" type="curve" smooth="yes"/>
      <point x="424" y="770" type="line"/>
      <point x="424" y="782" type="line"/>
      <point x="566" y="782" type="line" smooth="yes"/>
      <point x="680" y="782"/>
      <point x="796" y="852"/>
      <point x="826" y="986" type="curve"/>
      <point x="838" y="986" type="line"/>
      <point x="740" y="556" type="line"/>
      <point x="728" y="556" type="line"/>
      <point x="758" y="690"/>
      <point x="680" y="770"/>
    </contour>
    <contour>
      <point x="970" y="0" type="line"/>
      <point x="-90" y="0" type="line"/>
      <point x="-90" y="12" type="line"/>
      <point x="600" y="12" type="line" smooth="yes"/>
      <point x="874" y="12"/>
      <point x="1004" y="196"/>
      <point x="1062" y="450" type="curve"/>
      <point x="1074" y="450" type="line"/>
    </contour>
  </outline>
</glyph>
<glyph name="F" format="2">
  <advance width="1107"/>
  <unicode hex="0046"/>
  <outline>
    <contour>
      <point x="528" y="740" type="curve" smooth="yes"/>
      <point x="418" y="740" type="line"/>
      <point x="418" y="752" type="line"/>
      <point x="528" y="752" type="line" smooth="yes"/>
      <point x="700" y="752"/>
      <point x="812" y="812"/>
      <point x="838" y="946" type="curve"/>
      <point x="850" y="946" type="line"/>
      <point x="754" y="536" type="line"/>
      <point x="742" y="536" type="line"/>
      <point x="772" y="670"/>
      <point x="702" y="740"/>
    </contour>
    <contour>
      <point x="-90" y="12" type="line"/>
      <point x="470" y="12" type="line"/>
      <point x="470" y="0" type="line"/>
      <point x="-90" y="0" type="line"/>
    </contour>
    <contour>
      <point x="428" y="1500" type="line"/>
      <point x="618" y="1500" type="line"/>
      <point x="270" y="0" type="line"/>
      <point x="80" y="0" type="line"/>
    </contour>
    <contour>
      <point x="248" y="1500" type="line"/>
      <point x="1278" y="1500" type="line"/>
      <point x="1182" y="1090" type="line"/>
      <point x="1170" y="1090" type="line"/>
      <point x="1220" y="1304"/>
      <point x="1162" y="1488"/>
      <point x="928" y="1488" type="curve" smooth="yes"/>
      <point x="248" y="1488" type="line"/>
    </contour>
  </outline>
</glyph>
<glyph name="G" format="2">
  <advance width="1455"/>
  <unicode hex="0047"/>
  <outline>
    <contour>
      <point x="1086" y="568" type="line"/>
      <point x="1294" y="568" type="line"/>
      <point x="1234" y="330" type="line"/>
      <point x="1144" y="204"/>
      <point x="946" y="-20"/>
      <point x="620" y="-20" type="curve" smooth="yes"/>
      <point x="314" y="-20"/>
      <point x="110" y="184"/>
      <point x="110" y="510" type="curve" smooth="yes"/>
      <point x="110" y="1056"/>
      <point x="514" y="1520"/>
      <point x="980" y="1520" type="curve" smooth="yes"/>
      <point x="1216" y="1520"/>
      <point x="1396" y="1376"/>
      <point x="1360" y="1090" type="curve"/>
      <point x="1348" y="1090" type="line"/>
      <point x="1384" y="1366"/>
      <point x="1204" y="1502"/>
      <point x="1000" y="1502" type="curve" smooth="yes"/>
      <point x="572" y="1502"/>
      <point x="330" y="854"/>
      <point x="330" y="390" type="curve" smooth="yes"/>
      <point x="330" y="186"/>
      <point x="392" y="-8"/>
      <point x="600" y="-8" type="curve" smooth="yes"/>
      <point x="848" y="-8"/>
      <point x="974" y="206"/>
      <point x="1004" y="250" type="curve"/>
    </contour>
    <contour>
      <point x="910" y="576" type="line"/>
      <point x="1450" y="576" type="line"/>
      <point x="1450" y="564" type="line"/>
      <point x="910" y="564" type="line"/>
    </contour>
    <contour>
      <point x="1446" y="1500" type="line"/>
      <point x="1456" y="1500" type="line"/>
      <point x="1360" y="1090" type="line"/>
      <point x="1348" y="1090" type="line"/>
      <point x="1358" y="1148" type="line"/>
      <point x="1360" y="1208"/>
      <point x="1342" y="1304"/>
      <point x="1308" y="1358" type="curve"/>
    </contour>
  </outline>
</glyph>
<glyph name="J" format="2">
  <advance width="1724"/>
  <unicode hex="004A"/>
  <outline>
    <contour>
      <point x="762" y="3072" type="line"/>
      <point x="2114" y="3072" type="line"/>
      <point x="2114" y="3048" type="line"/>
      <point x="762" y="3048" type="line"/>
    </contour>
    <contour>
      <point x="-82" y="304" type="curve"/>
      <point x="-74" y="140"/>
      <point x="62" y="-98"/>
      <point x="312" y="-98" type="curve" smooth="yes"/>
      <point x="562" y="-98"/>
      <point x="662" y="204"/>
      <point x="794" y="778" type="curve" smooth="yes"/>
      <point x="1314" y="3072" type="line"/>
      <point x="1704" y="3072" type="line"/>
      <point x="1168" y="692" type="line"/>
      <point x="1004" y="406"/>
      <point x="726" y="-122"/>
      <point x="312" y="-122" type="curve" smooth="yes"/>
      <point x="38" y="-122"/>
      <point x="-122" y="144"/>
      <point x="-122" y="348" type="curve" smooth="yes"/>
      <point x="-122" y="520"/>
      <point x="-12" y="614"/>
      <point x="110" y="614" type="curve" smooth="yes"/>
      <point x="212" y="614"/>
      <point x="340" y="540"/>
      <point x="340" y="372" type="curve" smooth="yes"/>
      <point x="340" y="216"/>
      <point x="228" y="136"/>
      <point x="114" y="136" type="curve" smooth="yes"/>
      <point x="4" y="136"/>
      <point x="-58" y="206"/>
    </contour>
  </outline>
</glyph>
<glyph name="K" format="2">
  <advance width="1343"/>
  <unicode hex="004B"/>
  <outline>
    <contour>
      <point x="-80" y="12" type="line"/>
      <point x="460" y="12" type="line"/>
      <point x="460" y="0" type="line"/>
      <point x="-80" y="0" type="line"/>
    </contour>
    <contour>
      <point x="250" y="1500" type="line"/>
      <point x="790" y="1500" type="line"/>
      <point x="790" y="1488" type="line"/>
      <point x="250" y="1488" type="line"/>
    </contour>
    <contour>
      <point x="430" y="1500" type="line"/>
      <point x="620" y="1500" type="line"/>
      <point x="280" y="0" type="line"/>
      <point x="90" y="0" type="line"/>
    </contour>
    <contour>
      <point x="288" y="434" type="line"/>
      <point x="268" y="434" type="line"/>
      <point x="1258" y="1498" type="line"/>
      <point x="1278" y="1498" type="line"/>
    </contour>
    <contour>
      <point x="594" y="12" type="line"/>
      <point x="1214" y="12" type="line"/>
      <point x="1214" y="0" type="line"/>
      <point x="594" y="0" type="line"/>
    </contour>
    <contour>
      <point x="1464" y="1488" type="line"/>
      <point x="984" y="1488" type="line"/>
      <point x="984" y="1500" type="line"/>
      <point x="1464" y="1500" type="line"/>
    </contour>
    <contour>
      <point x="1042" y="0" type="line"/>
      <point x="832" y="0" type="line"/>
      <point x="582" y="764" type="line"/>
      <point x="726" y="916" type="line"/>
    </contour>
  </outline>
</glyph>
<glyph name="M" format="2">
  <advance width="1669"/>
  <unicode hex="004D"/>
  <outline>
    <contour>
      <point x="1040" y="12" type="line"/>
      <point x="1530" y="12" type="line"/>
      <point x="1530" y="0" type="line"/>
      <point x="1040" y="0" type="line"/>
    </contour>
    <contour>
      <point x="1682" y="1488" type="line"/>
      <point x="1370" y="0" type="line"/>
      <point x="1180" y="0" type="line"/>
      <point x="1500" y="1500" type="line"/>
      <point x="1810" y="1500" type="line"/>
      <point x="1810" y="1488" type="line"/>
    </contour>
    <contour>
      <point x="798" y="262" type="line"/>
      <point x="1494" y="1500" type="line"/>
      <point x="1508" y="1500" type="line"/>
      <point x="656" y="-20" type="line"/>
      <point x="642" y="-20" type="line"/>
      <point x="406" y="1500" type="line"/>
      <point x="598" y="1500" type="line"/>
    </contour>
    <contour>
      <point x="402" y="1488" type="line"/>
      <point x="250" y="1488" type="line"/>
      <point x="250" y="1500" type="line"/>
      <point x="418" y="1500" type="line"/>
      <point x="102" y="0" type="line"/>
      <point x="90" y="0" type="line"/>
    </contour>
    <contour>
      <point x="-50" y="12" type="line"/>
      <point x="258" y="12" type="line"/>
      <point x="258" y="0" type="line"/>
      <point x="-50" y="0" type="line"/>
    </contour>
  </outline>
</glyph>
<glyph name="N" format="2">
  <advance width="1429"/>
  <unicode hex="004E"/>
  <outline>
    <contour>
      <point x="1418" y="1500" type="line"/>
      <point x="1430" y="1500" type="line"/>
      <point x="1084" y="-20" type="line"/>
      <point x="1066" y="-20" type="line"/>
      <point x="450" y="1500" type="line"/>
      <point x="680" y="1500" type="line"/>
      <point x="1148" y="314" type="line"/>
    </contour>
    <contour>
      <point x="1178" y="1500" type="line"/>
      <point x="1620" y="1500" type="line"/>
      <point x="1620" y="1488" type="line"/>
      <point x="1178" y="1488" type="line"/>
    </contour>
    <contour>
      <point x="-70" y="12" type="line"/>
      <point x="382" y="12" type="line"/>
      <point x="382" y="0" type="line"/>
      <point x="-70" y="0" type="line"/>
    </contour>
    <contour>
      <point x="452" y="1488" type="line"/>
      <point x="250" y="1488" type="line"/>
      <point x="250" y="1500" type="line"/>
      <point x="468" y="1500" type="line"/>
      <point x="130" y="0" type="line"/>
      <point x="120" y="0" type="line"/>
    </contour>
  </outline>
</glyph>
<glyph name="R" format="2">
  <advance width="1429"/>
  <unicode hex="0052"/>
  <outline>
    <contour>
      <point x="1300" y="24" type="line"/>
      <point x="1228" y="-4"/>
      <point x="1192" y="-10"/>
      <point x="1120" y="-10" type="curve" smooth="yes"/>
      <point x="654" y="-10"/>
      <point x="1152" y="764"/>
      <point x="660" y="764" type="curve" smooth="yes"/>
      <point x="430" y="764" type="line"/>
      <point x="430" y="770" type="line"/>
      <point x="700" y="770" type="line" smooth="yes"/>
      <point x="1386" y="770"/>
      <point x="950" y="12"/>
      <point x="1196" y="12" type="curve" smooth="yes"/>
      <point x="1238" y="12"/>
      <point x="1268" y="24"/>
      <point x="1296" y="36" type="curve"/>
    </contour>
    <contour>
      <point x="470" y="1500" type="line"/>
      <point x="660" y="1500" type="line"/>
      <point x="310" y="0" type="line"/>
      <point x="120" y="0" type="line"/>
    </contour>
    <contour>
      <point x="-80" y="12" type="line"/>
      <point x="530" y="12" type="line"/>
      <point x="530" y="0" type="line"/>
      <point x="-80" y="0" type="line"/>
    </contour>
    <contour>
      <point x="720" y="766" type="curve" smooth="yes"/>
      <point x="430" y="766" type="line"/>
      <point x="430" y="776" type="line"/>
      <point x="720" y="776" type="line" smooth="yes"/>
      <point x="992" y="776"/>
      <point x="1130" y="1022"/>
      <point x="1130" y="1220" type="curve" smooth="yes"/>
      <point x="1130" y="1318"/>
      <point x="1112" y="1488"/>
      <point x="920" y="1488" type="curve" smooth="yes"/>
      <point x="250" y="1488" type="line"/>
      <point x="250" y="1500" type="line"/>
      <point x="920" y="1500" type="line" smooth="yes"/>
      <point x="1182" y="1500"/>
      <point x="1350" y="1420"/>
      <point x="1350" y="1200" type="curve" smooth="yes"/>
      <point x="1350" y="920"/>
      <point x="1122" y="766"/>
    </contour>
  </outline>
</glyph>
<glyph name="S" format="2">
  <advance width="1111"/>
  <unicode hex="0053"/>
  <outline>
    <contour>
      <point x="1086" y="1174" type="line"/>
      <point x="1080" y="1228"/>
      <point x="1060" y="1310"/>
      <point x="1024" y="1372" type="curve"/>
      <point x="1172" y="1520" type="line"/>
      <point x="1182" y="1520" type="line"/>
      <point x="1092" y="1110" type="line"/>
      <point x="1080" y="1110" type="line"/>
    </contour>
    <contour>
      <point x="1092" y="1110" type="curve"/>
      <point x="1080" y="1110" type="line"/>
      <point x="1080" y="1360"/>
      <point x="958" y="1508"/>
      <point x="714" y="1508" type="curve" smooth="yes"/>
      <point x="562" y="1508"/>
      <point x="396" y="1398"/>
      <point x="396" y="1226" type="curve" smooth="yes"/>
      <point x="396" y="840"/>
      <point x="1006" y="980"/>
      <point x="1006" y="440" type="curve" smooth="yes"/>
      <point x="1006" y="160"/>
      <point x="748" y="-30"/>
      <point x="466" y="-30" type="curve" smooth="yes"/>
      <point x="154" y="-30"/>
      <point x="64" y="150"/>
      <point x="56" y="390" type="curve"/>
      <point x="68" y="390" type="line"/>
      <point x="74" y="158"/>
      <point x="166" y="-18"/>
      <point x="462" y="-18" type="curve" smooth="yes"/>
      <point x="674" y="-18"/>
      <point x="846" y="116"/>
      <point x="846" y="314" type="curve" smooth="yes"/>
      <point x="846" y="740"/>
      <point x="236" y="630"/>
      <point x="236" y="1070" type="curve" smooth="yes"/>
      <point x="236" y="1370"/>
      <point x="528" y="1520"/>
      <point x="710" y="1520" type="curve" smooth="yes"/>
      <point x="966" y="1520"/>
      <point x="1092" y="1372"/>
    </contour>
    <contour>
      <point x="-30" y="-20" type="line"/>
      <point x="-40" y="-20" type="line"/>
      <point x="56" y="390" type="line"/>
      <point x="68" y="390" type="line"/>
      <point x="70" y="298" type="line"/>
      <point x="80" y="242"/>
      <point x="100" y="174"/>
      <point x="120" y="138" type="curve"/>
    </contour>
  </outline>
</glyph>
<glyph name="T" format="2">
  <advance width="1243"/>
  <unicode hex="0054"/>
  <outline>
    <contour>
      <point x="190" y="12" type="line"/>
      <point x="820" y="12" type="line"/>
      <point x="820" y="0" type="line"/>
      <point x="190" y="0" type="line"/>
    </contour>
    <contour>
      <point x="754" y="1500" type="line"/>
      <point x="944" y="1500" type="line"/>
      <point x="596" y="0" type="line"/>
      <point x="406" y="0" type="line"/>
    </contour>
    <contour>
      <point x="1134" y="1488" type="curve" smooth="yes"/>
      <point x="544" y="1488" type="line" smooth="yes"/>
      <point x="310" y="1488"/>
      <point x="220" y="1302"/>
      <point x="162" y="1050" type="curve"/>
      <point x="150" y="1050" type="line"/>
      <point x="254" y="1500" type="line"/>
      <point x="1444" y="1500" type="line"/>
      <point x="1340" y="1050" type="line"/>
      <point x="1328" y="1050" type="line"/>
      <point x="1386" y="1304"/>
      <point x="1368" y="1488"/>
    </contour>
  </outline>
</glyph>
<glyph name="U" format="2">
  <advance width="1367"/>
  <unicode hex="0055"/>
  <outline>
    <contour>
      <point x="1168" y="1500" type="line"/>
      <point x="1558" y="1500" type="line"/>
      <point x="1558" y="1488" type="line"/>
      <point x="1168" y="1488" type="line"/>
    </contour>
    <contour>
      <point x="248" y="1500" type="line"/>
      <point x="818" y="1500" type="line"/>
      <point x="818" y="1488" type="line"/>
      <point x="248" y="1488" type="line"/>
    </contour>
    <contour>
      <point x="1372" y="1500" type="line"/>
      <point x="1384" y="1500" type="line"/>
      <point x="1144" y="460" type="line" smooth="yes"/>
      <point x="1072" y="146"/>
      <point x="934" y="-30"/>
      <point x="618" y="-30" type="curve" smooth="yes"/>
      <point x="292" y="-30"/>
      <point x="122" y="132"/>
      <point x="198" y="460" type="curve" smooth="yes"/>
      <point x="438" y="1500" type="line"/>
      <point x="628" y="1500" type="line"/>
      <point x="388" y="480" type="line" smooth="yes"/>
      <point x="330" y="230"/>
      <point x="366" y="-16"/>
      <point x="634" y="-16" type="curve" smooth="yes"/>
      <point x="924" y="-16"/>
      <point x="1064" y="158"/>
      <point x="1132" y="460" type="curve" smooth="yes"/>
    </contour>
  </outline>
</glyph>
<glyph name="X" format="2">
  <advance width="1449"/>
  <unicode hex="0058"/>
  <outline>
    <contour>
      <point x="782" y="754" type="line"/>
      <point x="764" y="754" type="line"/>
      <point x="1346" y="1496" type="line"/>
      <point x="1364" y="1496" type="line"/>
    </contour>
    <contour>
      <point x="128" y="0" type="line"/>
      <point x="110" y="0" type="line"/>
      <point x="772" y="834" type="line"/>
      <point x="790" y="834" type="line"/>
    </contour>
    <contour>
      <point x="760" y="12" type="line"/>
      <point x="1320" y="12" type="line"/>
      <point x="1320" y="0" type="line"/>
      <point x="760" y="0" type="line"/>
    </contour>
    <contour>
      <point x="-100" y="12" type="line"/>
      <point x="380" y="12" type="line"/>
      <point x="380" y="0" type="line"/>
      <point x="-100" y="0" type="line"/>
    </contour>
    <contour>
      <point x="870" y="1488" type="line"/>
      <point x="310" y="1488" type="line"/>
      <point x="310" y="1500" type="line"/>
      <point x="870" y="1500" type="line"/>
    </contour>
    <contour>
      <point x="1570" y="1488" type="line"/>
      <point x="1130" y="1488" type="line"/>
      <point x="1130" y="1500" type="line"/>
      <point x="1570" y="1500" type="line"/>
    </contour>
    <contour>
      <point x="1182" y="0" type="line"/>
      <point x="952" y="0" type="line"/>
      <point x="450" y="1500" type="line"/>
      <point x="672" y="1500" type="line"/>
    </contour>
  </outline>
</glyph>
<glyph name="Z" format="2">
  <advance width="1097"/>
  <unicode hex="005A"/>
  <outline>
    <contour>
      <point x="988" y="1488" type="line"/>
      <point x="628" y="1488" type="line" smooth="yes"/>
      <point x="354" y="1488"/>
      <point x="260" y="1374"/>
      <point x="210" y="1160" type="curve"/>
      <point x="198" y="1160" type="line"/>
      <point x="278" y="1500" type="line"/>
      <point x="1228" y="1500" type="line"/>
      <point x="1228" y="1488" type="line"/>
      <point x="140" y="12" type="line"/>
      <point x="560" y="12" type="line" smooth="yes"/>
      <point x="834" y="12"/>
      <point x="928" y="128"/>
      <point x="986" y="380" type="curve"/>
      <point x="998" y="380" type="line"/>
      <point x="910" y="0" type="line"/>
      <point x="-100" y="0" type="line"/>
      <point x="-100" y="12" type="line"/>
    </contour>
  </outline>
</glyph>
<glyph name="bracketleft" format="2">
  <advance width="669"/>
  <unicode hex="005B"/>
  <outline>
    <contour>
      <point x="400" y="1560" type="line"/>
      <point x="880" y="1560" type="line"/>
      <point x="880" y="1548" type="line"/>
      <point x="576" y="1548" type="line"/>
      <point x="164" y="-288" type="line"/>
      <point x="460" y="-288" type="line"/>
      <point x="460" y="-300" type="line"/>
      <point x="-20" y="-300" type="line"/>
    </contour>
  </outline>
</glyph>
<glyph name="a" format="2">
  <advance width="1201"/>
  <unicode hex="0061"/>
  <outline>
    <contour>
      <point x="754" y="628" type="curve" smooth="yes"/>
      <point x="754" y="774"/>
      <point x="704" y="900"/>
      <point x="606" y="900" type="curve" smooth="yes"/>
      <point x="418" y="900"/>
      <point x="240" y="548"/>
      <point x="240" y="280" type="curve" smooth="yes"/>
      <point x="240" y="116"/>
      <point x="288" y="6"/>
      <point x="390" y="6" type="curve" smooth="yes"/>
      <point x="612" y="6"/>
      <point x="754" y="404"/>
    </contour>
    <contour>
      <point x="764" y="628" type="curve" smooth="yes"/>
      <point x="764" y="412"/>
      <point x="632" y="-20"/>
      <point x="350" y="-20" type="curve" smooth="yes"/>
      <point x="212" y="-20"/>
      <point x="32" y="60"/>
      <point x="32" y="320" type="curve" smooth="yes"/>
      <point x="32" y="720"/>
      <point x="346" y="940"/>
      <point x="544" y="940" type="curve" smooth="yes"/>
      <point x="696" y="940"/>
      <point x="764" y="812"/>
    </contour>
    <contour>
      <point x="1162" y="326" type="line"/>
      <point x="1086" y="126"/>
      <point x="968" y="-20"/>
      <point x="806" y="-20" type="curve" smooth="yes"/>
      <point x="712" y="-20"/>
      <point x="664" y="26"/>
      <point x="664" y="126" type="curve" smooth="yes"/>
      <point x="664" y="136"/>
      <point x="666" y="158"/>
      <point x="668" y="170" type="curve" smooth="yes"/>
      <point x="712" y="364" type="line"/>
      <point x="750" y="510" type="line"/>
      <point x="758" y="580" type="line"/>
      <point x="838" y="920" type="line"/>
      <point x="1018" y="920" type="line"/>
      <point x="822" y="80" type="line" smooth="yes"/>
      <point x="820" y="68"/>
      <point x="818" y="54"/>
      <point x="818" y="44" type="curve" smooth="yes"/>
      <point x="818" y="22"/>
      <point x="828" y="6"/>
      <point x="854" y="6" type="curve" smooth="yes"/>
      <point x="966" y="6"/>
      <point x="1084" y="150"/>
      <point x="1150" y="330" type="curve"/>
    </contour>
  </outline>
</glyph>
<glyph name="b" format="2">
  <advance width="1117"/>
  <unicode hex="0062"/>
  <outline>
    <contour>
      <point x="418" y="1488" type="line"/>
      <point x="264" y="1488" type="line"/>
      <point x="264" y="1500" type="line"/>
      <point x="600" y="1500" type="line"/>
      <point x="320" y="280" type="line"/>
      <point x="320" y="132"/>
      <point x="356" y="-10"/>
      <point x="478" y="-10" type="curve" smooth="yes"/>
      <point x="686" y="-10"/>
      <point x="850" y="390"/>
      <point x="850" y="658" type="curve" smooth="yes"/>
      <point x="850" y="806"/>
      <point x="802" y="910"/>
      <point x="700" y="910" type="curve" smooth="yes"/>
      <point x="548" y="910"/>
      <point x="414" y="704"/>
      <point x="360" y="460" type="curve"/>
      <point x="352" y="460" type="line"/>
      <point x="426" y="804"/>
      <point x="582" y="938"/>
      <point x="744" y="938" type="curve" smooth="yes"/>
      <point x="878" y="938"/>
      <point x="1058" y="876"/>
      <point x="1058" y="620" type="curve" smooth="yes"/>
      <point x="1058" y="200"/>
      <point x="772" y="-20"/>
      <point x="474" y="-20" type="curve" smooth="yes"/>
      <point x="272" y="-20"/>
      <point x="172" y="114"/>
      <point x="132" y="240" type="curve"/>
    </contour>
  </outline>
</glyph>
<glyph name="d" format="2">
  <advance width="1201"/>
  <unicode hex="0064"/>
  <outline>
    <contour>
      <point x="1164" y="326" type="line"/>
      <point x="1088" y="126"/>
      <point x="970" y="-20"/>
      <point x="808" y="-20" type="curve" smooth="yes"/>
      <point x="714" y="-20"/>
      <point x="666" y="26"/>
      <point x="666" y="126" type="curve" smooth="yes"/>
      <point x="666" y="136"/>
      <point x="668" y="158"/>
      <point x="670" y="170" type="curve" smooth="yes"/>
      <point x="712" y="364" type="line"/>
      <point x="750" y="510" type="line"/>
      <point x="758" y="580" type="line"/>
      <point x="962" y="1488" type="line"/>
      <point x="776" y="1488" type="line"/>
      <point x="776" y="1500" type="line"/>
      <point x="1142" y="1500" type="line"/>
      <point x="824" y="80" type="line" smooth="yes"/>
      <point x="822" y="68"/>
      <point x="820" y="54"/>
      <point x="820" y="44" type="curve" smooth="yes"/>
      <point x="820" y="22"/>
      <point x="830" y="6"/>
      <point x="856" y="6" type="curve" smooth="yes"/>
      <point x="968" y="6"/>
      <point x="1086" y="150"/>
      <point x="1152" y="330" type="curve"/>
    </contour>
    <contour>
      <point x="754" y="628" type="curve" smooth="yes"/>
      <point x="754" y="774"/>
      <point x="704" y="900"/>
      <point x="606" y="900" type="curve" smooth="yes"/>
      <point x="418" y="900"/>
      <point x="240" y="548"/>
      <point x="240" y="280" type="curve" smooth="yes"/>
      <point x="240" y="116"/>
      <point x="288" y="6"/>
      <point x="390" y="6" type="curve" smooth="yes"/>
      <point x="612" y="6"/>
      <point x="754" y="404"/>
    </contour>
    <contour>
      <point x="764" y="628" type="curve" smooth="yes"/>
      <point x="764" y="412"/>
      <point x="632" y="-20"/>
      <point x="350" y="-20" type="curve" smooth="yes"/>
      <point x="212" y="-20"/>
      <point x="32" y="60"/>
      <point x="32" y="320" type="curve" smooth="yes"/>
      <point x="32" y="720"/>
      <point x="346" y="940"/>
      <point x="544" y="940" type="curve" smooth="yes"/>
      <point x="696" y="940"/>
      <point x="764" y="812"/>
    </contour>
  </outline>
</glyph>
<glyph name="e" format="2">
  <advance width="1904"/>
  <unicode hex="0065"/>
  <outline>
    <contour>
      <point x="492" y="574" type="curve" smooth="yes"/>
      <point x="492" y="270"/>
      <point x="524" y="-4"/>
      <point x="766" y="-4" type="curve" smooth="yes"/>
      <point x="1172" y="-4"/>
      <point x="1478" y="292"/>
      <point x="1634" y="586" type="curve"/>
      <point x="1658" y="586" type="line"/>
      <point x="1498" y="270"/>
      <point x="1170" y="-40"/>
      <point x="716" y="-40" type="curve" smooth="yes"/>
      <point x="384" y="-40"/>
      <point x="66" y="164"/>
      <point x="66" y="656" type="curve" smooth="yes"/>
      <point x="66" y="1446"/>
      <point x="680" y="1926"/>
      <point x="1216" y="1926" type="curve" smooth="yes"/>
      <point x="1592" y="1926"/>
      <point x="1844" y="1818"/>
      <point x="1844" y="1524" type="curve" smooth="yes"/>
      <point x="1844" y="898"/>
      <point x="868" y="898"/>
      <point x="414" y="898" type="curve"/>
      <point x="414" y="922" type="line"/>
      <point x="860" y="922"/>
      <point x="1450" y="976"/>
      <point x="1450" y="1524" type="curve" smooth="yes"/>
      <point x="1450" y="1716"/>
      <point x="1406" y="1904"/>
      <point x="1258" y="1904" type="curve" smooth="yes"/>
      <point x="894" y="1904"/>
      <point x="492" y="1246"/>
    </contour>
  </outline>
</glyph>
<glyph name="f" format="2">
  <advance width="673"/>
  <unicode hex="0066"/>
  <outline>
    <contour>
      <point x="106" y="920" type="line"/>
      <point x="746" y="920" type="line"/>
      <point x="746" y="908" type="line"/>
      <point x="106" y="908" type="line"/>
    </contour>
    <contour>
      <point x="972" y="1364" type="curve"/>
      <point x="962" y="1424"/>
      <point x="904" y="1508"/>
      <point x="768" y="1508" type="curve" smooth="yes"/>
      <point x="628" y="1508"/>
      <point x="530" y="1324"/>
      <point x="486" y="1080" type="curve" smooth="yes"/>
      <point x="284" y="-24" type="line" smooth="yes"/>
      <point x="238" y="-274"/>
      <point x="70" y="-520"/>
      <point x="-190" y="-520" type="curve" smooth="yes"/>
      <point x="-352" y="-520"/>
      <point x="-416" y="-406"/>
      <point x="-416" y="-322" type="curve" smooth="yes"/>
      <point x="-416" y="-240"/>
      <point x="-362" y="-198"/>
      <point x="-302" y="-198" type="curve" smooth="yes"/>
      <point x="-252" y="-198"/>
      <point x="-190" y="-226"/>
      <point x="-190" y="-306" type="curve" smooth="yes"/>
      <point x="-190" y="-386"/>
      <point x="-252" y="-418"/>
      <point x="-310" y="-418" type="curve" smooth="yes"/>
      <point x="-346" y="-418"/>
      <point x="-384" y="-394"/>
      <point x="-394" y="-364" type="curve"/>
      <point x="-384" y="-424"/>
      <point x="-326" y="-508"/>
      <point x="-190" y="-508" type="curve" smooth="yes"/>
      <point x="-50" y="-508"/>
      <point x="50" y="-324"/>
      <point x="92" y="-80" type="curve" smooth="yes"/>
      <point x="292" y="1024" type="line" smooth="yes"/>
      <point x="336" y="1276"/>
      <point x="508" y="1520"/>
      <point x="768" y="1520" type="curve" smooth="yes"/>
      <point x="930" y="1520"/>
      <point x="994" y="1406"/>
      <point x="994" y="1322" type="curve" smooth="yes"/>
      <point x="994" y="1240"/>
      <point x="940" y="1198"/>
      <point x="880" y="1198" type="curve" smooth="yes"/>
      <point x="830" y="1198"/>
      <point x="768" y="1226"/>
      <point x="768" y="1306" type="curve" smooth="yes"/>
      <point x="768" y="1386"/>
      <point x="830" y="1418"/>
      <point x="888" y="1418" type="curve" smooth="yes"/>
      <point x="924" y="1418"/>
      <point x="962" y="1392"/>
    </contour>
  </outline>
</glyph>
<glyph name="g" format="2">
  <advance width="1105"/>
  <unicode hex="0067"/>
  <outline>
    <contour>
      <point x="256" y="-10" type="line"/>
      <point x="166" y="-40"/>
      <point x="102" y="-160"/>
      <point x="102" y="-284" type="curve" smooth="yes"/>
      <point x="102" y="-400"/>
      <point x="138" y="-506"/>
      <point x="290" y="-506" type="curve" smooth="yes"/>
      <point x="488" y="-506"/>
      <point x="718" y="-392"/>
      <point x="718" y="-174" type="curve" smooth="yes"/>
      <point x="718" y="-66"/>
      <point x="664" y="-18"/>
      <point x="554" y="-18" type="curve" smooth="yes"/>
      <point x="512" y="-18"/>
      <point x="438" y="-18"/>
      <point x="394" y="-18" type="curve" smooth="yes"/>
      <point x="214" y="-18"/>
      <point x="68" y="-6"/>
      <point x="68" y="118" type="curve" smooth="yes"/>
      <point x="68" y="266"/>
      <point x="288" y="330"/>
      <point x="418" y="330" type="curve"/>
      <point x="418" y="324" type="line"/>
      <point x="352" y="324"/>
      <point x="212" y="298"/>
      <point x="212" y="208" type="curve" smooth="yes"/>
      <point x="212" y="154"/>
      <point x="316" y="138"/>
      <point x="426" y="138" type="curve" smooth="yes"/>
      <point x="496" y="138"/>
      <point x="512" y="140"/>
      <point x="568" y="140" type="curve" smooth="yes"/>
      <point x="718" y="140"/>
      <point x="802" y="88"/>
      <point x="802" y="-84" type="curve" smooth="yes"/>
      <point x="802" y="-326"/>
      <point x="562" y="-520"/>
      <point x="282" y="-520" type="curve" smooth="yes"/>
      <point x="56" y="-520"/>
      <point x="-88" y="-460"/>
      <point x="-88" y="-310" type="curve" smooth="yes"/>
      <point x="-88" y="-108"/>
      <point x="160" y="-10"/>
      <point x="250" y="-10" type="curve" smooth="yes"/>
    </contour>
    <contour>
      <point x="1146" y="788" type="curve" smooth="yes"/>
      <point x="1146" y="698"/>
      <point x="1094" y="668"/>
      <point x="1044" y="668" type="curve" smooth="yes"/>
      <point x="994" y="668"/>
      <point x="944" y="702"/>
      <point x="944" y="768" type="curve" smooth="yes"/>
      <point x="944" y="824"/>
      <point x="992" y="862"/>
      <point x="1048" y="862" type="curve" smooth="yes"/>
      <point x="1096" y="862"/>
      <point x="1124" y="824"/>
      <point x="1130" y="802" type="curve"/>
      <point x="1120" y="880"/>
      <point x="1064" y="918"/>
      <point x="988" y="918" type="curve" smooth="yes"/>
      <point x="908" y="918"/>
      <point x="786" y="842"/>
      <point x="708" y="688" type="curve"/>
      <point x="698" y="694" type="line"/>
      <point x="778" y="856"/>
      <point x="908" y="930"/>
      <point x="988" y="930" type="curve" smooth="yes"/>
      <point x="1090" y="930"/>
      <point x="1146" y="864"/>
    </contour>
    <contour>
      <point x="400" y="332" type="curve" smooth="yes"/>
      <point x="578" y="332"/>
      <point x="658" y="602"/>
      <point x="658" y="750" type="curve" smooth="yes"/>
      <point x="658" y="838"/>
      <point x="618" y="928"/>
      <point x="540" y="928" type="curve" smooth="yes"/>
      <point x="362" y="928"/>
      <point x="282" y="658"/>
      <point x="282" y="510" type="curve" smooth="yes"/>
      <point x="282" y="422"/>
      <point x="322" y="332"/>
    </contour>
    <contour>
      <point x="400" y="320" type="curve" smooth="yes"/>
      <point x="238" y="320"/>
      <point x="104" y="390"/>
      <point x="104" y="570" type="curve" smooth="yes"/>
      <point x="104" y="790"/>
      <point x="318" y="940"/>
      <point x="540" y="940" type="curve" smooth="yes"/>
      <point x="702" y="940"/>
      <point x="836" y="870"/>
      <point x="836" y="690" type="curve" smooth="yes"/>
      <point x="836" y="470"/>
      <point x="622" y="320"/>
    </contour>
  </outline>
</glyph>
<glyph name="i" format="2">
  <advance width="653"/>
  <unicode hex="0069"/>
  <outline>
    <contour>
      <point x="316" y="1400" type="curve" smooth="yes"/>
      <point x="316" y="1466"/>
      <point x="370" y="1520"/>
      <point x="436" y="1520" type="curve" smooth="yes"/>
      <point x="502" y="1520"/>
      <point x="556" y="1466"/>
      <point x="556" y="1400" type="curve" smooth="yes"/>
      <point x="556" y="1334"/>
      <point x="502" y="1280"/>
      <point x="436" y="1280" type="curve" smooth="yes"/>
      <point x="370" y="1280"/>
      <point x="316" y="1334"/>
    </contour>
    <contour>
      <point x="600" y="326" type="line"/>
      <point x="524" y="126"/>
      <point x="406" y="-20"/>
      <point x="244" y="-20" type="curve" smooth="yes"/>
      <point x="150" y="-20"/>
      <point x="102" y="26"/>
      <point x="102" y="126" type="curve" smooth="yes"/>
      <point x="102" y="136"/>
      <point x="104" y="158"/>
      <point x="106" y="170" type="curve" smooth="yes"/>
      <point x="274" y="908" type="line"/>
      <point x="132" y="908" type="line"/>
      <point x="132" y="920" type="line"/>
      <point x="456" y="920" type="line"/>
      <point x="260" y="80" type="line" smooth="yes"/>
      <point x="258" y="68"/>
      <point x="256" y="54"/>
      <point x="256" y="44" type="curve" smooth="yes"/>
      <point x="256" y="22"/>
      <point x="266" y="6"/>
      <point x="292" y="6" type="curve" smooth="yes"/>
      <point x="410" y="6"/>
      <point x="524" y="150"/>
      <point x="590" y="330" type="curve"/>
    </contour>
  </outline>
</glyph>
<glyph name="j" format="2">
  <advance width="1076"/>
  <unicode hex="006A"/>
  <outline>
    <contour>
      <point x="688" y="2868" type="curve" smooth="yes"/>
      <point x="688" y="3004"/>
      <point x="798" y="3112"/>
      <point x="934" y="3112" type="curve" smooth="yes"/>
      <point x="1070" y="3112"/>
      <point x="1180" y="3004"/>
      <point x="1180" y="2868" type="curve" smooth="yes"/>
      <point x="1180" y="2732"/>
      <point x="1070" y="2622"/>
      <point x="934" y="2622" type="curve" smooth="yes"/>
      <point x="798" y="2622"/>
      <point x="688" y="2732"/>
    </contour>
    <contour>
      <point x="-680" y="-688" type="curve"/>
      <point x="-660" y="-860"/>
      <point x="-508" y="-1040"/>
      <point x="-312" y="-1040" type="curve" smooth="yes"/>
      <point x="56" y="-1040"/>
      <point x="74" y="-410"/>
      <point x="188" y="82" type="curve" smooth="yes"/>
      <point x="606" y="1860" type="line"/>
      <point x="222" y="1860" type="line"/>
      <point x="222" y="1884" type="line"/>
      <point x="958" y="1884" type="line"/>
      <point x="558" y="-50" type="line" smooth="yes"/>
      <point x="452" y="-562"/>
      <point x="242" y="-1064"/>
      <point x="-290" y="-1064" type="curve" smooth="yes"/>
      <point x="-580" y="-1064"/>
      <point x="-712" y="-790"/>
      <point x="-712" y="-638" type="curve" smooth="yes"/>
      <point x="-712" y="-470"/>
      <point x="-580" y="-364"/>
      <point x="-458" y="-364" type="curve" smooth="yes"/>
      <point x="-356" y="-364"/>
      <point x="-250" y="-434"/>
      <point x="-250" y="-586" type="curve" smooth="yes"/>
      <point x="-250" y="-738"/>
      <point x="-374" y="-816"/>
      <point x="-496" y="-816" type="curve" smooth="yes"/>
      <point x="-586" y="-816"/>
      <point x="-656" y="-754"/>
    </contour>
  </outline>
</glyph>
<glyph name="l" format="2">
  <advance width="619"/>
  <unicode hex="006C"/>
  <outline>
    <contour>
      <point x="580" y="326" type="line"/>
      <point x="504" y="126"/>
      <point x="386" y="-20"/>
      <point x="224" y="-20" type="curve" smooth="yes"/>
      <point x="130" y="-20"/>
      <point x="82" y="26"/>
      <point x="82" y="126" type="curve" smooth="yes"/>
      <point x="82" y="136"/>
      <point x="84" y="158"/>
      <point x="86" y="170" type="curve" smooth="yes"/>
      <point x="390" y="1488" type="line"/>
      <point x="204" y="1488" type="line"/>
      <point x="204" y="1500" type="line"/>
      <point x="570" y="1500" type="line"/>
      <point x="240" y="80" type="line" smooth="yes"/>
      <point x="238" y="68"/>
      <point x="236" y="54"/>
      <point x="236" y="44" type="curve" smooth="yes"/>
      <point x="236" y="22"/>
      <point x="246" y="6"/>
      <point x="272" y="6" type="curve" smooth="yes"/>
      <point x="394" y="6"/>
      <point x="508" y="162"/>
      <point x="570" y="330" type="curve"/>
    </contour>
  </outline>
</glyph>
<glyph name="m" format="2">
  <advance width="1679"/>
  <unicode hex="006D"/>
  <outline>
    <contour>
      <point x="1294" y="616" type="line" smooth="yes"/>
      <point x="1346" y="770"/>
      <point x="1360" y="916"/>
      <point x="1268" y="916" type="curve" smooth="yes"/>
      <point x="1104" y="916"/>
      <point x="932" y="652"/>
      <point x="856" y="346" type="curve"/>
      <point x="846" y="346" type="line"/>
      <point x="922" y="650"/>
      <point x="1082" y="940"/>
      <point x="1308" y="940" type="curve" smooth="yes"/>
      <point x="1502" y="940"/>
      <point x="1532" y="798"/>
      <point x="1480" y="638" type="curve" smooth="yes"/>
      <point x="1298" y="80" type="line" smooth="yes"/>
      <point x="1294" y="68"/>
      <point x="1292" y="54"/>
      <point x="1292" y="44" type="curve" smooth="yes"/>
      <point x="1292" y="22"/>
      <point x="1304" y="6"/>
      <point x="1330" y="6" type="curve" smooth="yes"/>
      <point x="1454" y="6"/>
      <point x="1566" y="160"/>
      <point x="1630" y="330" type="curve"/>
      <point x="1640" y="326" type="line"/>
      <point x="1564" y="126"/>
      <point x="1446" y="-20"/>
      <point x="1284" y="-20" type="curve" smooth="yes"/>
      <point x="1190" y="-20"/>
      <point x="1138" y="30"/>
      <point x="1138" y="116" type="curve" smooth="yes"/>
      <point x="1138" y="146"/>
      <point x="1144" y="170"/>
      <point x="1148" y="184" type="curve" smooth="yes"/>
    </contour>
    <contour>
      <point x="772" y="0" type="line"/>
      <point x="592" y="0" type="line"/>
      <point x="742" y="616" type="line" smooth="yes"/>
      <point x="780" y="774"/>
      <point x="808" y="916"/>
      <point x="716" y="916" type="curve" smooth="yes"/>
      <point x="558" y="916"/>
      <point x="380" y="668"/>
      <point x="304" y="346" type="curve"/>
      <point x="294" y="346" type="line"/>
      <point x="368" y="648"/>
      <point x="530" y="940"/>
      <point x="756" y="940" type="curve" smooth="yes"/>
      <point x="950" y="940"/>
      <point x="968" y="800"/>
      <point x="928" y="638" type="curve" smooth="yes"/>
    </contour>
    <contour>
      <point x="260" y="908" type="line"/>
      <point x="122" y="908" type="line"/>
      <point x="122" y="920" type="line"/>
      <point x="442" y="920" type="line"/>
      <point x="222" y="0" type="line"/>
      <point x="42" y="0" type="line"/>
    </contour>
  </outline>
</glyph>
<glyph name="n" format="2">
  <advance width="1151"/>
  <unicode hex="006E"/>
  <outline>
    <contour>
      <point x="260" y="908" type="line"/>
      <point x="122" y="908" type="line"/>
      <point x="122" y="920" type="line"/>
      <point x="442" y="920" type="line"/>
      <point x="222" y="0" type="line"/>
      <point x="42" y="0" type="line"/>
    </contour>
    <contour>
      <point x="758" y="616" type="line" smooth="yes"/>
      <point x="810" y="770"/>
      <point x="810" y="916"/>
      <point x="718" y="916" type="curve" smooth="yes"/>
      <point x="554" y="916"/>
      <point x="376" y="652"/>
      <point x="304" y="346" type="curve"/>
      <point x="294" y="346" type="line"/>
      <point x="366" y="650"/>
      <point x="534" y="940"/>
      <point x="760" y="940" type="curve" smooth="yes"/>
      <point x="954" y="940"/>
      <point x="996" y="798"/>
      <point x="944" y="638" type="curve" smooth="yes"/>
      <point x="762" y="80" type="line" smooth="yes"/>
      <point x="758" y="68"/>
      <point x="756" y="54"/>
      <point x="756" y="44" type="curve" smooth="yes"/>
      <point x="756" y="22"/>
      <point x="768" y="6"/>
      <point x="794" y="6" type="curve" smooth="yes"/>
      <point x="912" y="6"/>
      <point x="1034" y="148"/>
      <point x="1100" y="328" type="curve"/>
      <point x="1112" y="326" type="line"/>
      <point x="1036" y="126"/>
      <point x="910" y="-20"/>
      <point x="748" y="-20" type="curve" smooth="yes"/>
      <point x="654" y="-20"/>
      <point x="602" y="30"/>
      <point x="602" y="116" type="curve" smooth="yes"/>
      <point x="602" y="146"/>
      <point x="606" y="168"/>
      <point x="612" y="184" type="curve" smooth="yes"/>
    </contour>
  </outline>
</glyph>
<glyph name="p" format="2">
  <advance width="2256"/>
  <unicode hex="0070"/>
  <outline>
    <contour>
      <point x="668" y="594" type="curve" smooth="yes"/>
      <point x="668" y="294"/>
      <point x="770" y="40"/>
      <point x="970" y="40" type="curve" smooth="yes"/>
      <point x="1356" y="40"/>
      <point x="1728" y="758"/>
      <point x="1728" y="1306" type="curve" smooth="yes"/>
      <point x="1728" y="1642"/>
      <point x="1622" y="1872"/>
      <point x="1414" y="1872" type="curve" smooth="yes"/>
      <point x="960" y="1872"/>
      <point x="668" y="1052"/>
    </contour>
    <contour>
      <point x="648" y="594" type="curve" smooth="yes"/>
      <point x="648" y="1036"/>
      <point x="918" y="1926"/>
      <point x="1496" y="1926" type="curve" smooth="yes"/>
      <point x="1778" y="1926"/>
      <point x="2154" y="1756"/>
      <point x="2154" y="1224" type="curve" smooth="yes"/>
      <point x="2154" y="404"/>
      <point x="1504" y="-40"/>
      <point x="1098" y="-40" type="curve" smooth="yes"/>
      <point x="786" y="-40"/>
      <point x="648" y="218"/>
    </contour>
    <contour>
      <point x="-386" y="-1000" type="line"/>
      <point x="536" y="-1000" type="line"/>
      <point x="536" y="-1024" type="line"/>
      <point x="-386" y="-1024" type="line"/>
    </contour>
    <contour>
      <point x="548" y="1860" type="line"/>
      <point x="258" y="1860" type="line"/>
      <point x="258" y="1884" type="line"/>
      <point x="922" y="1884" type="line"/>
      <point x="758" y="1188" type="line"/>
      <point x="692" y="934" type="line"/>
      <point x="668" y="762" type="line"/>
      <point x="250" y="-1024" type="line"/>
      <point x="-118" y="-1024" type="line"/>
    </contour>
  </outline>
</glyph>
<glyph name="q" format="2">
  <advance width="1091"/>
  <unicode hex="0071"/>
  <outline>
    <contour>
      <point x="830" y="-488" type="line"/>
      <point x="830" y="-500" type="line"/>
      <point x="380" y="-500" type="line"/>
      <point x="380" y="-488" type="line"/>
    </contour>
    <contour>
      <point x="690" y="-500" type="line"/>
      <point x="510" y="-500" type="line"/>
      <point x="712" y="364" type="line"/>
      <point x="729" y="413"/>
      <point x="738" y="468"/>
      <point x="750" y="520" type="curve"/>
      <point x="758" y="584" type="line"/>
      <point x="834" y="900" type="line"/>
      <point x="1022" y="940" type="line"/>
    </contour>
    <contour>
      <point x="754" y="628" type="curve" smooth="yes"/>
      <point x="754" y="774"/>
      <point x="704" y="900"/>
      <point x="606" y="900" type="curve" smooth="yes"/>
      <point x="418" y="900"/>
      <point x="240" y="548"/>
      <point x="240" y="280" type="curve" smooth="yes"/>
      <point x="240" y="116"/>
      <point x="288" y="6"/>
      <point x="390" y="6" type="curve" smooth="yes"/>
      <point x="612" y="6"/>
      <point x="754" y="404"/>
    </contour>
    <contour>
      <point x="764" y="628" type="curve" smooth="yes"/>
      <point x="764" y="412"/>
      <point x="632" y="-20"/>
      <point x="350" y="-20" type="curve" smooth="yes"/>
      <point x="212" y="-20"/>
      <point x="32" y="60"/>
      <point x="32" y="320" type="curve" smooth="yes"/>
      <point x="32" y="720"/>
      <point x="346" y="940"/>
      <point x="544" y="940" type="curve" smooth="yes"/>
      <point x="696" y="940"/>
      <point x="764" y="812"/>
    </contour>
  </outline>
</glyph>
<glyph name="r" format="2">
  <advance width="791"/>
  <unicode hex="0072"/>
  <outline>
    <contour>
      <point x="842" y="778" type="curve" smooth="yes"/>
      <point x="842" y="710"/>
      <point x="802" y="656"/>
      <point x="726" y="656" type="curve" smooth="yes"/>
      <point x="660" y="656"/>
      <point x="608" y="692"/>
      <point x="608" y="766" type="curve" smooth="yes"/>
      <point x="608" y="836"/>
      <point x="664" y="882"/>
      <point x="722" y="882" type="curve" smooth="yes"/>
      <point x="764" y="882"/>
      <point x="800" y="858"/>
      <point x="816" y="818" type="curve"/>
      <point x="804" y="880"/>
      <point x="738" y="930"/>
      <point x="658" y="930" type="curve" smooth="yes"/>
      <point x="452" y="930"/>
      <point x="358" y="542"/>
      <point x="310" y="346" type="curve"/>
      <point x="300" y="346" type="line"/>
      <point x="352" y="590"/>
      <point x="454" y="940"/>
      <point x="658" y="940" type="curve" smooth="yes"/>
      <point x="750" y="940"/>
      <point x="842" y="876"/>
    </contour>
    <contour>
      <point x="270" y="908" type="line"/>
      <point x="122" y="908" type="line"/>
      <point x="122" y="920" type="line"/>
      <point x="442" y="920" type="line"/>
      <point x="232" y="0" type="line"/>
      <point x="52" y="0" type="line"/>
    </contour>
  </outline>
</glyph>
<glyph name="s" format="2">
  <advance width="785"/>
  <unicode hex="0073"/>
  <outline>
    <contour>
      <point x="678" y="772" type="curve"/>
      <point x="662" y="858"/>
      <point x="562" y="926"/>
      <point x="430" y="926" type="curve" smooth="yes"/>
      <point x="324" y="926"/>
      <point x="236" y="864"/>
      <point x="236" y="772" type="curve" smooth="yes"/>
      <point x="236" y="556"/>
      <point x="666" y="550"/>
      <point x="666" y="284" type="curve" smooth="yes"/>
      <point x="666" y="96"/>
      <point x="486" y="-24"/>
      <point x="292" y="-24" type="curve" smooth="yes"/>
      <point x="94" y="-24"/>
      <point x="-8" y="100"/>
      <point x="-8" y="210" type="curve" smooth="yes"/>
      <point x="-8" y="292"/>
      <point x="56" y="334"/>
      <point x="116" y="334" type="curve" smooth="yes"/>
      <point x="166" y="334"/>
      <point x="230" y="302"/>
      <point x="230" y="222" type="curve" smooth="yes"/>
      <point x="230" y="152"/>
      <point x="174" y="112"/>
      <point x="116" y="112" type="curve" smooth="yes"/>
      <point x="46" y="112"/>
      <point x="18" y="158"/>
      <point x="10" y="192" type="curve"/>
      <point x="16" y="90"/>
      <point x="112" y="-12"/>
      <point x="292" y="-12" type="curve" smooth="yes"/>
      <point x="432" y="-12"/>
      <point x="520" y="82"/>
      <point x="520" y="180" type="curve" smooth="yes"/>
      <point x="520" y="390"/>
      <point x="104" y="362"/>
      <point x="104" y="654" type="curve" smooth="yes"/>
      <point x="104" y="852"/>
      <point x="284" y="938"/>
      <point x="430" y="938" type="curve" smooth="yes"/>
      <point x="586" y="938"/>
      <point x="696" y="844"/>
      <point x="696" y="750" type="curve" smooth="yes"/>
      <point x="696" y="668"/>
      <point x="646" y="636"/>
      <point x="586" y="636" type="curve" smooth="yes"/>
      <point x="536" y="636"/>
      <point x="482" y="668"/>
      <point x="482" y="738" type="curve" smooth="yes"/>
      <point x="482" y="798"/>
      <point x="534" y="838"/>
      <point x="580" y="838" type="curve" smooth="yes"/>
      <point x="638" y="838"/>
      <point x="668" y="806"/>
    </contour>
  </outline>
</glyph>
<glyph name="t" format="2">
  <advance width="633"/>
  <unicode hex="0074"/>
  <outline>
    <contour>
      <point x="74" y="920" type="line"/>
      <point x="614" y="920" type="line"/>
      <point x="614" y="908" type="line"/>
      <point x="74" y="908" type="line"/>
    </contour>
    <contour>
      <point x="590" y="326" type="line"/>
      <point x="514" y="126"/>
      <point x="396" y="-20"/>
      <point x="234" y="-20" type="curve" smooth="yes"/>
      <point x="140" y="-20"/>
      <point x="92" y="26"/>
      <point x="92" y="126" type="curve" smooth="yes"/>
      <point x="92" y="136"/>
      <point x="94" y="158"/>
      <point x="96" y="170" type="curve" smooth="yes"/>
      <point x="292" y="1120" type="line"/>
      <point x="470" y="1120" type="line"/>
      <point x="252" y="80" type="line" smooth="yes"/>
      <point x="250" y="68"/>
      <point x="248" y="54"/>
      <point x="248" y="44" type="curve" smooth="yes"/>
      <point x="248" y="22"/>
      <point x="258" y="6"/>
      <point x="284" y="6" type="curve" smooth="yes"/>
      <point x="400" y="6"/>
      <point x="514" y="150"/>
      <point x="580" y="330" type="curve"/>
    </contour>
  </outline>
</glyph>
<glyph name="u" format="2">
  <advance width="1215"/>
  <unicode hex="0075"/>
  <outline>
    <contour>
      <point x="452" y="920" type="line"/>
      <point x="300" y="272" type="line" smooth="yes"/>
      <point x="264" y="114"/>
      <point x="268" y="8"/>
      <point x="360" y="8" type="curve" smooth="yes"/>
      <point x="508" y="8"/>
      <point x="696" y="250"/>
      <point x="774" y="574" type="curve"/>
      <point x="784" y="574" type="line"/>
      <point x="708" y="270"/>
      <point x="536" y="-20"/>
      <point x="310" y="-20" type="curve" smooth="yes"/>
      <point x="116" y="-20"/>
      <point x="90" y="118"/>
      <point x="126" y="282" type="curve" smooth="yes"/>
      <point x="268" y="908" type="line"/>
      <point x="128" y="908" type="line"/>
      <point x="128" y="920" type="line"/>
    </contour>
    <contour>
      <point x="1176" y="326" type="line"/>
      <point x="1100" y="126"/>
      <point x="982" y="-20"/>
      <point x="820" y="-20" type="curve" smooth="yes"/>
      <point x="726" y="-20"/>
      <point x="678" y="26"/>
      <point x="678" y="126" type="curve" smooth="yes"/>
      <point x="678" y="136"/>
      <point x="680" y="158"/>
      <point x="682" y="170" type="curve" smooth="yes"/>
      <point x="850" y="920" type="line"/>
      <point x="1032" y="920" type="line"/>
      <point x="836" y="80" type="line" smooth="yes"/>
      <point x="834" y="68"/>
      <point x="832" y="54"/>
      <point x="832" y="44" type="curve" smooth="yes"/>
      <point x="832" y="22"/>
      <point x="842" y="6"/>
      <point x="868" y="6" type="curve" smooth="yes"/>
      <point x="992" y="6"/>
      <point x="1104" y="162"/>
      <point x="1166" y="330" type="curve"/>
    </contour>
  </outline>
</glyph>
<glyph name="v" format="2">
  <advance width="2158"/>
  <unicode hex="0076"/>
  <outline>
    <contour>
      <point x="898" y="516" type="line" smooth="yes"/>
      <point x="844" y="192"/>
      <point x="794" y="8"/>
      <point x="1024" y="8" type="curve" smooth="yes"/>
      <point x="1426" y="8"/>
      <point x="2072" y="784"/>
      <point x="2072" y="1410" type="curve" smooth="yes"/>
      <point x="2072" y="1586"/>
      <point x="2040" y="1690"/>
      <point x="2012" y="1740" type="curve"/>
      <point x="2012" y="1662"/>
      <point x="1958" y="1454"/>
      <point x="1774" y="1454" type="curve" smooth="yes"/>
      <point x="1594" y="1454"/>
      <point x="1528" y="1586"/>
      <point x="1528" y="1688" type="curve" smooth="yes"/>
      <point x="1528" y="1810"/>
      <point x="1626" y="1922"/>
      <point x="1778" y="1922" type="curve" smooth="yes"/>
      <point x="2036" y="1922"/>
      <point x="2098" y="1660"/>
      <point x="2098" y="1410" type="curve" smooth="yes"/>
      <point x="2098" y="788"/>
      <point x="1458" y="-40"/>
      <point x="954" y="-40" type="curve" smooth="yes"/>
      <point x="556" y="-40"/>
      <point x="462" y="200"/>
      <point x="524" y="536" type="curve" smooth="yes"/>
      <point x="742" y="1720" type="line" smooth="yes"/>
      <point x="746" y="1744"/>
      <point x="750" y="1774"/>
      <point x="750" y="1794" type="curve" smooth="yes"/>
      <point x="750" y="1840"/>
      <point x="726" y="1872"/>
      <point x="672" y="1872" type="curve" smooth="yes"/>
      <point x="430" y="1872"/>
      <point x="188" y="1544"/>
      <point x="70" y="1208" type="curve"/>
      <point x="46" y="1216" type="line"/>
      <point x="202" y="1626"/>
      <point x="442" y="1926"/>
      <point x="774" y="1926" type="curve" smooth="yes"/>
      <point x="966" y="1926"/>
      <point x="1074" y="1822"/>
      <point x="1074" y="1646" type="curve" smooth="yes"/>
      <point x="1074" y="1584"/>
      <point x="1060" y="1536"/>
      <point x="1056" y="1508" type="curve" smooth="yes"/>
    </contour>
  </outline>
</glyph>
<glyph name="w" format="2">
  <advance width="1599"/>
  <unicode hex="0077"/>
  <outline>
    <contour>
      <point x="358" y="272" type="line" smooth="yes"/>
      <point x="306" y="118"/>
      <point x="322" y="8"/>
      <point x="414" y="8" type="curve" smooth="yes"/>
      <point x="578" y="8"/>
      <point x="754" y="268"/>
      <point x="830" y="574" type="curve"/>
      <point x="840" y="574" type="line"/>
      <point x="764" y="270"/>
      <point x="592" y="-20"/>
      <point x="366" y="-20" type="curve" smooth="yes"/>
      <point x="172" y="-20"/>
      <point x="130" y="122"/>
      <point x="182" y="282" type="curve" smooth="yes"/>
      <point x="364" y="840" type="line" smooth="yes"/>
      <point x="368" y="852"/>
      <point x="370" y="866"/>
      <point x="370" y="876" type="curve" smooth="yes"/>
      <point x="370" y="898"/>
      <point x="358" y="914"/>
      <point x="332" y="914" type="curve" smooth="yes"/>
      <point x="206" y="914"/>
      <point x="96" y="758"/>
      <point x="34" y="590" type="curve"/>
      <point x="22" y="594" type="line"/>
      <point x="98" y="794"/>
      <point x="216" y="940"/>
      <point x="378" y="940" type="curve" smooth="yes"/>
      <point x="472" y="940"/>
      <point x="524" y="890"/>
      <point x="524" y="804" type="curve" smooth="yes"/>
      <point x="524" y="774"/>
      <point x="518" y="750"/>
      <point x="514" y="736" type="curve" smooth="yes"/>
    </contour>
    <contour>
      <point x="912" y="920" type="line"/>
      <point x="1092" y="920" type="line"/>
      <point x="956" y="346" type="line" smooth="yes"/>
      <point x="916" y="178"/>
      <point x="924" y="0"/>
      <point x="1092" y="0" type="curve" smooth="yes"/>
      <point x="1394" y="0"/>
      <point x="1558" y="440"/>
      <point x="1558" y="688" type="curve" smooth="yes"/>
      <point x="1558" y="756"/>
      <point x="1546" y="810"/>
      <point x="1536" y="830" type="curve"/>
      <point x="1534" y="756"/>
      <point x="1482" y="710"/>
      <point x="1408" y="710" type="curve" smooth="yes"/>
      <point x="1328" y="710"/>
      <point x="1290" y="774"/>
      <point x="1290" y="824" type="curve" smooth="yes"/>
      <point x="1290" y="884"/>
      <point x="1338" y="938"/>
      <point x="1412" y="938" type="curve" smooth="yes"/>
      <point x="1538" y="938"/>
      <point x="1570" y="810"/>
      <point x="1570" y="688" type="curve" smooth="yes"/>
      <point x="1570" y="468"/>
      <point x="1430" y="-20"/>
      <point x="1060" y="-20" type="curve" smooth="yes"/>
      <point x="882" y="-20"/>
      <point x="720" y="96"/>
      <point x="804" y="470" type="curve"/>
    </contour>
  </outline>
</glyph>
<glyph name="x" format="2">
  <advance width="2120"/>
  <unicode hex="0078"/>
  <outline>
    <contour>
      <point x="1056" y="992" type="line"/>
      <point x="1302" y="1394"/>
      <point x="1506" y="1926"/>
      <point x="1830" y="1926" type="curve" smooth="yes"/>
      <point x="2080" y="1926"/>
      <point x="2162" y="1746"/>
      <point x="2162" y="1614" type="curve" smooth="yes"/>
      <point x="2162" y="1466"/>
      <point x="2082" y="1368"/>
      <point x="1926" y="1368" type="curve" smooth="yes"/>
      <point x="1762" y="1368"/>
      <point x="1700" y="1500"/>
      <point x="1700" y="1602" type="curve" smooth="yes"/>
      <point x="1700" y="1712"/>
      <point x="1796" y="1826"/>
      <point x="1922" y="1826" type="curve" smooth="yes"/>
      <point x="2020" y="1826"/>
      <point x="2082" y="1782"/>
      <point x="2110" y="1704" type="curve"/>
      <point x="2090" y="1790"/>
      <point x="2016" y="1900"/>
      <point x="1840" y="1900" type="curve" smooth="yes"/>
      <point x="1520" y="1900"/>
      <point x="1324" y="1368"/>
      <point x="1086" y="978" type="curve"/>
    </contour>
    <contour>
      <point x="1118" y="1134" type="line"/>
      <point x="782" y="568"/>
      <point x="516" y="-40"/>
      <point x="192" y="-40" type="curve" smooth="yes"/>
      <point x="-58" y="-40"/>
      <point x="-140" y="138"/>
      <point x="-140" y="270" type="curve" smooth="yes"/>
      <point x="-140" y="418"/>
      <point x="-58" y="516"/>
      <point x="98" y="516" type="curve" smooth="yes"/>
      <point x="262" y="516"/>
      <point x="324" y="384"/>
      <point x="324" y="282" type="curve" smooth="yes"/>
      <point x="324" y="172"/>
      <point x="238" y="58"/>
      <point x="98" y="58" type="curve" smooth="yes"/>
      <point x="-4" y="58"/>
      <point x="-74" y="122"/>
      <point x="-94" y="196" type="curve"/>
      <point x="-62" y="48"/>
      <point x="44" y="-16"/>
      <point x="184" y="-16" type="curve" smooth="yes"/>
      <point x="496" y="-16"/>
      <point x="770" y="594"/>
      <point x="1098" y="1146" type="curve"/>
    </contour>
    <contour>
      <point x="1954" y="446" type="line"/>
      <point x="1818" y="78"/>
      <point x="1634" y="-40"/>
      <point x="1422" y="-40" type="curve" smooth="yes"/>
      <point x="1188" y="-40"/>
      <point x="1062" y="104"/>
      <point x="1008" y="300" type="curve" smooth="yes"/>
      <point x="914" y="652"/>
      <point x="720" y="1476"/>
      <point x="614" y="1770" type="curve" smooth="yes"/>
      <point x="598" y="1816"/>
      <point x="578" y="1868"/>
      <point x="504" y="1868" type="curve" smooth="yes"/>
      <point x="378" y="1868"/>
      <point x="234" y="1684"/>
      <point x="140" y="1422" type="curve"/>
      <point x="118" y="1430" type="line"/>
      <point x="254" y="1798"/>
      <point x="410" y="1934"/>
      <point x="664" y="1934" type="curve" smooth="yes"/>
      <point x="898" y="1934"/>
      <point x="1006" y="1790"/>
      <point x="1060" y="1594" type="curve" smooth="yes"/>
      <point x="1158" y="1226"/>
      <point x="1310" y="534"/>
      <point x="1454" y="136" type="curve" smooth="yes"/>
      <point x="1470" y="90"/>
      <point x="1522" y="36"/>
      <point x="1576" y="36" type="curve" smooth="yes"/>
      <point x="1670" y="36"/>
      <point x="1824" y="154"/>
      <point x="1934" y="454" type="curve"/>
    </contour>
  </outline>
</glyph>
<glyph name="y" format="2">
  <advance width="1121"/>
  <unicode hex="0079"/>
  <outline>
    <contour>
      <point x="650" y="-116" type="curve"/>
      <point x="504" y="136"/>
      <point x="362" y="716"/>
      <point x="308" y="860" type="curve" smooth="yes"/>
      <point x="300" y="882"/>
      <point x="290" y="908"/>
      <point x="254" y="908" type="curve" smooth="yes"/>
      <point x="190" y="908"/>
      <point x="114" y="808"/>
      <point x="76" y="688" type="curve"/>
      <point x="64" y="694" type="line"/>
      <point x="130" y="874"/>
      <point x="206" y="940"/>
      <point x="330" y="940" type="curve" smooth="yes"/>
      <point x="444" y="940"/>
      <point x="498" y="868"/>
      <point x="526" y="772" type="curve" smooth="yes"/>
      <point x="580" y="592"/>
      <point x="652" y="256"/>
      <point x="782" y="62" type="curve"/>
      <point x="740" y="2"/>
      <point x="695" y="-57"/>
    </contour>
    <contour>
      <point x="118" y="-520" type="curve" smooth="yes"/>
      <point x="-16" y="-520"/>
      <point x="-102" y="-432"/>
      <point x="-102" y="-302" type="curve" smooth="yes"/>
      <point x="-102" y="-236"/>
      <point x="-54" y="-170"/>
      <point x="22" y="-170" type="curve" smooth="yes"/>
      <point x="72" y="-170"/>
      <point x="134" y="-202"/>
      <point x="134" y="-278" type="curve" smooth="yes"/>
      <point x="134" y="-344"/>
      <point x="86" y="-386"/>
      <point x="28" y="-386" type="curve" smooth="yes"/>
      <point x="-32" y="-386"/>
      <point x="-78" y="-354"/>
      <point x="-88" y="-310" type="curve"/>
      <point x="-88" y="-426"/>
      <point x="-4" y="-508"/>
      <point x="118" y="-508" type="curve" smooth="yes"/>
      <point x="480" y="-508"/>
      <point x="1086" y="480"/>
      <point x="1086" y="730" type="curve" smooth="yes"/>
      <point x="1086" y="790"/>
      <point x="1068" y="844"/>
      <point x="1048" y="872" type="curve"/>
      <point x="1074" y="764"/>
      <point x="996" y="712"/>
      <point x="940" y="712" type="curve" smooth="yes"/>
      <point x="860" y="712"/>
      <point x="818" y="776"/>
      <point x="818" y="826" type="curve" smooth="yes"/>
      <point x="818" y="886"/>
      <point x="868" y="940"/>
      <point x="942" y="940" type="curve" smooth="yes"/>
      <point x="1064" y="940"/>
      <point x="1100" y="814"/>
      <point x="1100" y="732" type="curve" smooth="yes"/>
      <point x="1100" y="472"/>
      <point x="488" y="-520"/>
    </contour>
  </outline>
</glyph>
<glyph name="z" format="2">
  <advance width="773"/>
  <unicode hex="007A"/>
  <outline>
    <contour>
      <point x="46" y="560" type="line"/>
      <point x="130" y="920" type="line"/>
      <point x="238" y="860"/>
      <point x="358" y="842"/>
      <point x="450" y="842" type="curve" smooth="yes"/>
      <point x="546" y="842"/>
      <point x="720" y="852"/>
      <point x="784" y="916" type="curve"/>
      <point x="796" y="904" type="line"/>
      <point x="636" y="768"/>
      <point x="490" y="690"/>
      <point x="350" y="690" type="curve" smooth="yes"/>
      <point x="262" y="690"/>
      <point x="162" y="724"/>
      <point x="110" y="772" type="curve"/>
      <point x="58" y="560" type="line"/>
    </contour>
    <contour>
      <point x="-76" y="-8" type="line"/>
      <point x="-98" y="-10" type="line"/>
      <point x="776" y="900" type="line"/>
      <point x="796" y="904" type="line"/>
    </contour>
    <contour>
      <point x="728" y="308" type="curve"/>
      <point x="718" y="268"/>
      <point x="682" y="232"/>
      <point x="628" y="232" type="curve" smooth="yes"/>
      <point x="578" y="232"/>
      <point x="526" y="272"/>
      <point x="526" y="332" type="curve" smooth="yes"/>
      <point x="526" y="402"/>
      <point x="580" y="434"/>
      <point x="630" y="434" type="curve" smooth="yes"/>
      <point x="690" y="434"/>
      <point x="740" y="402"/>
      <point x="740" y="320" type="curve" smooth="yes"/>
      <point x="740" y="220"/>
      <point x="630" y="-20"/>
      <point x="466" y="-20" type="curve" smooth="yes"/>
      <point x="344" y="-20"/>
      <point x="298" y="78"/>
      <point x="166" y="78" type="curve" smooth="yes"/>
      <point x="70" y="78"/>
      <point x="-22" y="44"/>
      <point x="-86" y="-20" type="curve"/>
      <point x="-96" y="-10" type="line"/>
      <point x="50" y="110"/>
      <point x="186" y="190"/>
      <point x="326" y="190" type="curve" smooth="yes"/>
      <point x="434" y="190"/>
      <point x="478" y="104"/>
      <point x="588" y="104" type="curve" smooth="yes"/>
      <point x="684" y="104"/>
      <point x="726" y="256"/>
    </contour>
  </outline>
</glyph>
<glyph name="cent" format="2">
  <advance width="929"/>
  <unicode hex="00A2"/>
  <outline>
    <contour>
      <point x="668" y="1110" type="line"/>
      <point x="328" y="-170" type="line"/>
      <point x="316" y="-170" type="line"/>
      <point x="656" y="1110" type="line"/>
    </contour>
    <component base="c"/>
  </outline>
</glyph>
<glyph name="sterling" format="2">
  <advance width="1250"/>
  <unicode hex="00A3"/>
  <outline>
    <contour>
      <point x="1184" y="314" type="line"/>
      <point x="1144" y="24"/>
      <point x="962" y="-60"/>
      <point x="784" y="-60" type="curve" smooth="yes"/>
      <point x="510" y="-60"/>
      <point x="420" y="60"/>
      <point x="294" y="60" type="curve" smooth="yes"/>
      <point x="212" y="60"/>
      <point x="118" y="20"/>
      <point x="78" y="-40" type="curve"/>
      <point x="70" y="-40" type="line"/>
      <point x="130" y="108"/>
      <point x="242" y="194"/>
      <point x="424" y="194" type="curve" smooth="yes"/>
      <point x="624" y="194"/>
      <point x="644" y="126"/>
      <point x="828" y="126" type="curve" smooth="yes"/>
      <point x="986" y="126"/>
      <point x="1132" y="150"/>
      <point x="1172" y="314" type="curve"/>
    </contour>
    <contour>
      <point x="1030" y="810" type="line"/>
      <point x="1030" y="798" type="line"/>
      <point x="130" y="798" type="line"/>
      <point x="130" y="810" type="line"/>
    </contour>
    <contour>
      <point x="396" y="1020" type="curve" smooth="yes"/>
      <point x="396" y="1320"/>
      <point x="646" y="1520"/>
      <point x="1008" y="1520" type="curve" smooth="yes"/>
      <point x="1272" y="1520"/>
      <point x="1404" y="1356"/>
      <point x="1404" y="1192" type="curve" smooth="yes"/>
      <point x="1404" y="1110"/>
      <point x="1346" y="1068"/>
      <point x="1286" y="1068" type="curve" smooth="yes"/>
      <point x="1236" y="1068"/>
      <point x="1172" y="1100"/>
      <point x="1172" y="1180" type="curve" smooth="yes"/>
      <point x="1172" y="1250"/>
      <point x="1228" y="1290"/>
      <point x="1286" y="1290" type="curve" smooth="yes"/>
      <point x="1340" y="1290"/>
      <point x="1380" y="1252"/>
      <point x="1388" y="1218" type="curve"/>
      <point x="1388" y="1344"/>
      <point x="1268" y="1506"/>
      <point x="1028" y="1506" type="curve" smooth="yes"/>
      <point x="750" y="1506"/>
      <point x="618" y="1248"/>
      <point x="618" y="1100" type="curve" smooth="yes"/>
      <point x="618" y="962"/>
      <point x="660" y="870"/>
      <point x="660" y="700" type="curve" smooth="yes"/>
      <point x="660" y="320"/>
      <point x="50" y="270"/>
      <point x="76" y="-40" type="curve"/>
      <point x="64" y="-40" type="line"/>
      <point x="26" y="238"/>
      <point x="458" y="394"/>
      <point x="458" y="622" type="curve" smooth="yes"/>
      <point x="458" y="730"/>
      <point x="396" y="850"/>
    </contour>
  </outline>
</glyph>
<glyph name="section" format="2">
  <advance width="947"/>
  <unicode hex="00A7"/>
  <outline>
    <contour>
      <point x="402" y="1268" type="curve" smooth="yes"/>
      <point x="402" y="1056"/>
      <point x="916" y="1106"/>
      <point x="916" y="800" type="curve" smooth="yes"/>
      <point x="916" y="636"/>
      <point x="750" y="580"/>
      <point x="642" y="508" type="curve"/>
      <point x="632" y="510" type="line"/>
      <point x="696" y="554"/>
      <point x="760" y="626"/>
      <point x="760" y="706" type="curve" smooth="yes"/>
      <point x="760" y="928"/>
      <point x="286" y="852"/>
      <point x="286" y="1196" type="curve" smooth="yes"/>
      <point x="286" y="1404"/>
      <point x="486" y="1520"/>
      <point x="676" y="1520" type="curve" smooth="yes"/>
      <point x="872" y="1520"/>
      <point x="984" y="1384"/>
      <point x="984" y="1252" type="curve" smooth="yes"/>
      <point x="984" y="1130"/>
      <point x="934" y="1080"/>
      <point x="864" y="1080" type="curve" smooth="yes"/>
      <point x="804" y="1080"/>
      <point x="756" y="1120"/>
      <point x="756" y="1192" type="curve" smooth="yes"/>
      <point x="756" y="1256"/>
      <point x="812" y="1302"/>
      <point x="870" y="1302" type="curve" smooth="yes"/>
      <point x="924" y="1302"/>
      <point x="964" y="1264"/>
      <point x="972" y="1252" type="curve"/>
      <point x="972" y="1366"/>
      <point x="884" y="1506"/>
      <point x="676" y="1506" type="curve" smooth="yes"/>
      <point x="530" y="1506"/>
      <point x="402" y="1402"/>
    </contour>
    <contour>
      <point x="800" y="324" type="curve" smooth="yes"/>
      <point x="800" y="116"/>
      <point x="600" y="-20"/>
      <point x="370" y="-20" type="curve" smooth="yes"/>
      <point x="194" y="-20"/>
      <point x="22" y="70"/>
      <point x="22" y="262" type="curve" smooth="yes"/>
      <point x="22" y="344"/>
      <point x="82" y="426"/>
      <point x="162" y="426" type="curve" smooth="yes"/>
      <point x="222" y="426"/>
      <point x="270" y="386"/>
      <point x="270" y="314" type="curve" smooth="yes"/>
      <point x="270" y="250"/>
      <point x="214" y="204"/>
      <point x="140" y="204" type="curve" smooth="yes"/>
      <point x="78" y="204"/>
      <point x="42" y="236"/>
      <point x="34" y="270" type="curve"/>
      <point x="30" y="82"/>
      <point x="190" y="-6"/>
      <point x="370" y="-6" type="curve" smooth="yes"/>
      <point x="576" y="-6"/>
      <point x="664" y="148"/>
      <point x="664" y="242" type="curve" smooth="yes"/>
      <point x="664" y="474"/>
      <point x="138" y="404"/>
      <point x="138" y="690" type="curve" smooth="yes"/>
      <point x="138" y="834"/>
      <point x="296" y="948"/>
      <point x="384" y="1000" type="curve"/>
      <point x="396" y="1000" type="line"/>
      <point x="372" y="976"/>
      <point x="328" y="894"/>
      <point x="328" y="814" type="curve" smooth="yes"/>
      <point x="328" y="552"/>
      <point x="800" y="688"/>
    </contour>
  </outline>
</glyph>
<glyph name="acute" format="2">
  <advance width="789"/>
  <unicode hex="00B4"/>
  <outline>
    <contour>
      <point x="950" y="1440" type="curve" smooth="yes"/>
      <point x="460" y="1434" type="line"/>
      <point x="456" y="1446" type="line"/>
      <point x="930" y="1576" type="line" smooth="yes"/>
      <point x="986" y="1590"/>
      <point x="1020" y="1548"/>
      <point x="1020" y="1510" type="curve" smooth="yes"/>
      <point x="1020" y="1472"/>
      <point x="988" y="1442"/>
    </contour>
  </outline>
</glyph>
<glyph name="mu" format="2">
  <advance width="1215"/>
  <unicode hex="00B5"/>
  <outline>
    <contour>
      <point x="30" y="-182" type="line" smooth="yes"/>
      <point x="-12" y="-368"/>
      <point x="18" y="-506"/>
      <point x="194" y="-510" type="curve"/>
      <point x="242" y="-506" type="line"/>
      <point x="188" y="-492"/>
      <point x="132" y="-456"/>
      <point x="132" y="-376" type="curve" smooth="yes"/>
      <point x="132" y="-304"/>
      <point x="192" y="-250"/>
      <point x="258" y="-250" type="curve" smooth="yes"/>
      <point x="324" y="-250"/>
      <point x="386" y="-304"/>
      <point x="386" y="-380" type="curve" smooth="yes"/>
      <point x="386" y="-458"/>
      <point x="338" y="-520"/>
      <point x="192" y="-520" type="curve" smooth="yes"/>
      <point x="12" y="-520"/>
      <point x="-26" y="-372"/>
      <point x="18" y="-182" type="curve" smooth="yes"/>
      <point x="208" y="642" type="line"/>
      <point x="220" y="642" type="line"/>
    </contour>
    <component base="u"/>
  </outline>
</glyph>
<glyph name="AE" format="2">
  <advance width="2000"/>
  <unicode hex="00C6"/>
  <outline>
    <contour>
      <point x="1358" y="1500" type="line"/>
      <point x="2188" y="1500" type="line"/>
      <point x="2092" y="1090" type="line"/>
      <point x="2080" y="1090" type="line"/>
      <point x="2130" y="1304"/>
      <point x="2072" y="1488"/>
      <point x="1838" y="1488" type="curve" smooth="yes"/>
      <point x="1358" y="1488" type="line"/>
    </contour>
    <contour>
      <point x="1456" y="770" type="curve" smooth="yes"/>
      <point x="1314" y="770" type="line"/>
      <point x="1314" y="782" type="line"/>
      <point x="1456" y="782" type="line" smooth="yes"/>
      <point x="1570" y="782"/>
      <point x="1686" y="852"/>
      <point x="1716" y="986" type="curve"/>
      <point x="1728" y="986" type="line"/>
      <point x="1630" y="556" type="line"/>
      <point x="1618" y="556" type="line"/>
      <point x="1648" y="690"/>
      <point x="1570" y="770"/>
    </contour>
    <contour>
      <point x="1860" y="0" type="line"/>
      <point x="800" y="0" type="line"/>
      <point x="800" y="12" type="line"/>
      <point x="1490" y="12" type="line" smooth="yes"/>
      <point x="1764" y="12"/>
      <point x="1894" y="196"/>
      <point x="1952" y="450" type="curve"/>
      <point x="1964" y="450" type="line"/>
    </contour>
    <contour>
      <point x="1318" y="1500" type="line"/>
      <point x="1508" y="1500" type="line"/>
      <point x="1160" y="0" type="line"/>
      <point x="970" y="0" type="line"/>
    </contour>
    <contour>
      <point x="526" y="496" type="line"/>
      <point x="1110" y="496" type="line"/>
      <point x="1110" y="484" type="line"/>
      <point x="526" y="484" type="line"/>
    </contour>
    <contour>
      <point x="1308" y="1500" type="line"/>
      <point x="1324" y="1500" type="line"/>
      <point x="150" y="0" type="line"/>
      <point x="132" y="0" type="line"/>
    </contour>
    <contour>
      <point x="-50" y="12" type="line"/>
      <point x="390" y="12" type="line"/>
      <point x="390" y="0" type="line"/>
      <point x="-50" y="0" type="line"/>
    </contour>
  </outline>
</glyph>
<glyph name="germandbls" format="2">
  <advance width="1361"/>
  <unicode hex="00DF"/>
  <outline>
    <contour>
      <point x="1302" y="380" type="curve" smooth="yes"/>
      <point x="1302" y="100"/>
      <point x="1074" y="-20"/>
      <point x="892" y="-20" type="curve" smooth="yes"/>
      <point x="714" y="-20"/>
      <point x="616" y="88"/>
      <point x="616" y="232" type="curve" smooth="yes"/>
      <point x="616" y="344"/>
      <point x="680" y="402"/>
      <point x="750" y="402" type="curve" smooth="yes"/>
      <point x="810" y="402"/>
      <point x="858" y="362"/>
      <point x="858" y="290" type="curve" smooth="yes"/>
      <point x="858" y="226"/>
      <point x="798" y="180"/>
      <point x="740" y="180" type="curve" smooth="yes"/>
      <point x="686" y="180"/>
      <point x="640" y="214"/>
      <point x="630" y="260" type="curve"/>
      <point x="614" y="114"/>
      <point x="706" y="-4"/>
      <point x="872" y="-4" type="curve" smooth="yes"/>
      <point x="1050" y="-4"/>
      <point x="1100" y="192"/>
      <point x="1100" y="380" type="curve" smooth="yes"/>
      <point x="1100" y="568"/>
      <point x="1024" y="804"/>
      <point x="786" y="804" type="curve"/>
      <point x="786" y="814" type="line"/>
      <point x="1148" y="814"/>
      <point x="1302" y="640"/>
    </contour>
    <contour>
      <point x="-50" y="12" type="line"/>
      <point x="490" y="12" type="line"/>
      <point x="490" y="0" type="line"/>
      <point x="-50" y="0" type="line"/>
    </contour>
    <contour>
      <point x="786" y="808" type="curve"/>
      <point x="786" y="818" type="line"/>
      <point x="1044" y="818"/>
      <point x="1220" y="1034"/>
      <point x="1220" y="1202" type="curve" smooth="yes"/>
      <point x="1220" y="1346"/>
      <point x="1174" y="1510"/>
      <point x="966" y="1510" type="curve" smooth="yes"/>
      <point x="678" y="1510"/>
      <point x="592" y="1232"/>
      <point x="530" y="962" type="curve" smooth="yes"/>
      <point x="310" y="0" type="line"/>
      <point x="130" y="0" type="line"/>
      <point x="350" y="982" type="line" smooth="yes"/>
      <point x="424" y="1312"/>
      <point x="620" y="1520"/>
      <point x="966" y="1520" type="curve" smooth="yes"/>
      <point x="1232" y="1520"/>
      <point x="1422" y="1408"/>
      <point x="1422" y="1202" type="curve" smooth="yes"/>
      <point x="1422" y="982"/>
      <point x="1188" y="808"/>
    </contour>
  </outline>
</glyph>
<glyph name="eth" format="2">
  <advance width="1119"/>
  <unicode hex="00F0"/>
  <outline>
    <contour>
      <point x="420" y="1260" type="line"/>
      <point x="1260" y="1260" type="line"/>
      <point x="1260" y="1248" type="line"/>
      <point x="420" y="1248" type="line"/>
    </contour>
    <contour>
      <point x="1114" y="800" type="curve" smooth="yes"/>
      <point x="1114" y="380"/>
      <point x="814" y="-20"/>
      <point x="472" y="-20" type="curve" smooth="yes"/>
      <point x="230" y="-20"/>
      <point x="80" y="80"/>
      <point x="80" y="340" type="curve" smooth="yes"/>
      <point x="80" y="760"/>
      <point x="416" y="980"/>
      <point x="658" y="980" type="curve" smooth="yes"/>
      <point x="872" y="980"/>
      <point x="902" y="822"/>
      <point x="902" y="588" type="curve"/>
      <point x="888" y="660" type="line"/>
      <point x="888" y="800"/>
      <point x="844" y="958"/>
      <point x="702" y="958" type="curve" smooth="yes"/>
      <point x="484" y="958"/>
      <point x="280" y="648"/>
      <point x="280" y="300" type="curve" smooth="yes"/>
      <point x="280" y="152"/>
      <point x="312" y="-8"/>
      <point x="470" y="-8" type="curve" smooth="yes"/>
      <point x="688" y="-8"/>
      <point x="888" y="432"/>
      <point x="888" y="660" type="curve"/>
      <point x="894" y="672" type="line"/>
      <point x="894" y="1064"/>
      <point x="910" y="1510"/>
      <point x="470" y="1510" type="curve"/>
      <point x="470" y="1520" type="line"/>
      <point x="916" y="1520"/>
      <point x="1114" y="1186"/>
    </contour>
  </outline>
</glyph>
<glyph name="divide" format="2">
  <advance width="1119"/>
  <unicode hex="00F7"/>
  <outline>
    <contour>
      <point x="188" y="796" type="line"/>
      <point x="1109" y="796" type="line"/>
      <point x="1109" y="784" type="line"/>
      <point x="188" y="784" type="line"/>
    </contour>
    <contour>
      <point x="439" y="420" type="curve" smooth="yes"/>
      <point x="439" y="486"/>
      <point x="494" y="540"/>
      <point x="560" y="540" type="curve" smooth="yes"/>
      <point x="626" y="540"/>
      <point x="680" y="486"/>
      <point x="680" y="420" type="curve" smooth="yes"/>
      <point x="680" y="354"/>
      <point x="626" y="301"/>
      <point x="560" y="301" type="curve" smooth="yes"/>
      <point x="494" y="301"/>
      <point x="439" y="354"/>
    </contour>
    <contour>
      <point x="600" y="1130" type="curve" smooth="yes"/>
      <point x="600" y="1196"/>
      <point x="654" y="1250"/>
      <point x="720" y="1250" type="curve" smooth="yes"/>
      <point x="786" y="1250"/>
      <point x="840" y="1196"/>
      <point x="840" y="1130" type="curve" smooth="yes"/>
      <point x="840" y="1064"/>
      <point x="786" y="1011"/>
      <point x="720" y="1011" type="curve" smooth="yes"/>
      <point x="654" y="1011"/>
      <point x="600" y="1064"/>
    </contour>
  </outline>
</glyph>
<glyph name="thorn" format="2">
  <advance width="2346"/>
  <unicode hex="00FE"/>
  <outline>
    <contour>
      <point x="738" y="610" type="curve" smooth="yes"/>
      <point x="738" y="310"/>
      <point x="836" y="54"/>
      <point x="1036" y="54" type="curve" smooth="yes"/>
      <point x="1422" y="54"/>
      <point x="1798" y="776"/>
      <point x="1798" y="1324" type="curve" smooth="yes"/>
      <point x="1798" y="1660"/>
      <point x="1686" y="1884"/>
      <point x="1478" y="1884" type="curve" smooth="yes"/>
      <point x="1024" y="1884"/>
      <point x="738" y="1068"/>
    </contour>
    <contour>
      <point x="716" y="610" type="curve" smooth="yes"/>
      <point x="716" y="1052"/>
      <point x="982" y="1938"/>
      <point x="1560" y="1938" type="curve" smooth="yes"/>
      <point x="1842" y="1938"/>
      <point x="2224" y="1774"/>
      <point x="2224" y="1242" type="curve" smooth="yes"/>
      <point x="2224" y="422"/>
      <point x="1570" y="-24"/>
      <point x="1164" y="-24" type="curve" smooth="yes"/>
      <point x="852" y="-24"/>
      <point x="716" y="234"/>
    </contour>
    <contour>
      <point x="-308" y="-1000" type="line"/>
      <point x="614" y="-1000" type="line"/>
      <point x="614" y="-1024" type="line"/>
      <point x="-308" y="-1024" type="line"/>
    </contour>
    <contour>
      <point x="888" y="3048" type="line"/>
      <point x="602" y="3048" type="line"/>
      <point x="602" y="3072" type="line"/>
      <point x="1266" y="3072" type="line"/>
      <point x="840" y="1204" type="line"/>
      <point x="758" y="910" type="line"/>
      <point x="720" y="664" type="line"/>
      <point x="328" y="-1024" type="line"/>
      <point x="-40" y="-1024" type="line"/>
    </contour>
  </outline>
</glyph>
<glyph name="dotlessi" format="2">
  <advance width="637"/>
  <unicode hex="0131"/>
  <outline>
    <contour>
      <point x="598" y="326" type="line"/>
      <point x="522" y="126"/>
      <point x="404" y="-20"/>
      <point x="242" y="-20" type="curve" smooth="yes"/>
      <point x="148" y="-20"/>
      <point x="100" y="26"/>
      <point x="100" y="126" type="curve" smooth="yes"/>
      <point x="100" y="136"/>
      <point x="102" y="158"/>
      <point x="104" y="170" type="curve" smooth="yes"/>
      <point x="270" y="908" type="line"/>
      <point x="130" y="908" type="line"/>
      <point x="130" y="920" type="line"/>
      <point x="454" y="920" type="line"/>
      <point x="258" y="80" type="line" smooth="yes"/>
      <point x="256" y="68"/>
      <point x="254" y="54"/>
      <point x="254" y="44" type="curve" smooth="yes"/>
      <point x="254" y="22"/>
      <point x="264" y="6"/>
      <point x="290" y="6" type="curve" smooth="yes"/>
      <point x="408" y="6"/>
      <point x="522" y="150"/>
      <point x="588" y="330" type="curve"/>
    </contour>
  </outline>
</glyph>
<glyph name="kgreenlandic" format="2">
  <advance width="1105"/>
  <unicode hex="0138"/>
  <outline>
    <contour>
      <point x="1066" y="326" type="line"/>
      <point x="990" y="126"/>
      <point x="872" y="-20"/>
      <point x="710" y="-20" type="curve" smooth="yes"/>
      <point x="616" y="-20"/>
      <point x="574" y="26"/>
      <point x="574" y="126" type="curve" smooth="yes"/>
      <point x="574" y="136"/>
      <point x="576" y="158"/>
      <point x="578" y="170" type="curve" smooth="yes"/>
      <point x="602" y="280" type="line" smooth="yes"/>
      <point x="628" y="396"/>
      <point x="698" y="568"/>
      <point x="550" y="568" type="curve" smooth="yes"/>
      <point x="408" y="568"/>
      <point x="378" y="448"/>
      <point x="360" y="380" type="curve"/>
      <point x="350" y="380" type="line"/>
      <point x="390" y="558"/>
      <point x="482" y="578"/>
      <point x="564" y="578" type="curve" smooth="yes"/>
      <point x="702" y="578"/>
      <point x="826" y="502"/>
      <point x="766" y="242" type="curve" smooth="yes"/>
      <point x="722" y="56" type="line" smooth="yes"/>
      <point x="722" y="52"/>
      <point x="720" y="42"/>
      <point x="720" y="38" type="curve" smooth="yes"/>
      <point x="720" y="16"/>
      <point x="734" y="6"/>
      <point x="760" y="6" type="curve" smooth="yes"/>
      <point x="874" y="6"/>
      <point x="990" y="150"/>
      <point x="1056" y="330" type="curve"/>
    </contour>
    <contour>
      <point x="406" y="501" type="curve"/>
      <point x="410" y="511" type="line"/>
      <point x="426" y="503"/>
      <point x="439" y="496"/>
      <point x="476" y="496" type="curve" smooth="yes"/>
      <point x="572" y="496"/>
      <point x="610" y="594"/>
      <point x="662" y="722" type="curve" smooth="yes"/>
      <point x="718" y="858"/>
      <point x="786" y="940"/>
      <point x="886" y="940" type="curve" smooth="yes"/>
      <point x="976" y="940"/>
      <point x="1036" y="882"/>
      <point x="1036" y="778" type="curve" smooth="yes"/>
      <point x="1036" y="688"/>
      <point x="984" y="658"/>
      <point x="934" y="658" type="curve" smooth="yes"/>
      <point x="884" y="658"/>
      <point x="834" y="692"/>
      <point x="834" y="758" type="curve" smooth="yes"/>
      <point x="834" y="814"/>
      <point x="874" y="852"/>
      <point x="930" y="852" type="curve" smooth="yes"/>
      <point x="984" y="852"/>
      <point x="1010" y="820"/>
      <point x="1018" y="792" type="curve"/>
      <point x="1016" y="874"/>
      <point x="968" y="928"/>
      <point x="886" y="928" type="curve" smooth="yes"/>
      <point x="790" y="928"/>
      <point x="728" y="850"/>
      <point x="674" y="716" type="curve" smooth="yes"/>
      <point x="620" y="580"/>
      <point x="576" y="484"/>
      <point x="476" y="484" type="curve" smooth="yes"/>
      <point x="438" y="484"/>
      <point x="411" y="497"/>
    </contour>
    <contour>
      <point x="304" y="908" type="line"/>
      <point x="125" y="908" type="line"/>
      <point x="125" y="920" type="line"/>
      <point x="486" y="920" type="line"/>
      <point x="272" y="0" type="line"/>
      <point x="92" y="0" type="line"/>
    </contour>
  </outline>
</glyph>
<glyph name="Lslash" format="2">
  <advance width="2300"/>
  <unicode hex="0141"/>
  <outline>
    <contour>
      <point x="144" y="1474" type="line"/>
      <point x="1556" y="2376" type="line"/>
      <point x="1556" y="2348" type="line"/>
      <point x="144" y="1446" type="line"/>
    </contour>
    <component base="L"/>
  </outline>
</glyph>
<glyph name="OE" format="2">
  <advance width="1899"/>
  <unicode hex="0152"/>
  <outline>
    <contour>
      <point x="978" y="1500" type="curve"/>
      <point x="978" y="1488" type="line"/>
      <point x="610" y="1488"/>
      <point x="368" y="854"/>
      <point x="368" y="390" type="curve" smooth="yes"/>
      <point x="368" y="186"/>
      <point x="432" y="12"/>
      <point x="640" y="12" type="curve"/>
      <point x="640" y="0" type="line"/>
      <point x="334" y="0"/>
      <point x="148" y="184"/>
      <point x="148" y="510" type="curve" smooth="yes"/>
      <point x="148" y="1056"/>
      <point x="552" y="1500"/>
    </contour>
    <component base="E" xOffset="730"/>
  </outline>
</glyph>
<glyph name="uni0213" format="2">
  <advance width="791"/>
  <unicode hex="0213"/>
  <outline>
    <contour>
      <point x="766" y="1060" type="line"/>
      <point x="786" y="1158"/>
      <point x="706" y="1208"/>
      <point x="598" y="1208" type="curve" smooth="yes"/>
      <point x="490" y="1208"/>
      <point x="370" y="1158"/>
      <point x="350" y="1060" type="curve"/>
      <point x="338" y="1060" type="line"/>
      <point x="358" y="1182"/>
      <point x="438" y="1318"/>
      <point x="618" y="1318" type="curve" smooth="yes"/>
      <point x="798" y="1318"/>
      <point x="798" y="1182"/>
      <point x="778" y="1060" type="curve"/>
    </contour>
    <component base="r"/>
  </outline>
</glyph>
<glyph name="circumflex" format="2">
  <advance width="769"/>
  <unicode hex="02C6"/>
  <outline>
    <contour>
      <point x="644" y="1450" type="line"/>
      <point x="326" y="1314" type="line"/>
      <point x="320" y="1320" type="line"/>
      <point x="584" y="1540" type="line"/>
      <point x="714" y="1540" type="line"/>
      <point x="890" y="1320" type="line"/>
      <point x="884" y="1314" type="line"/>
    </contour>
  </outline>
</glyph>
<glyph name="caron" format="2">
  <advance width="1576"/>
  <unicode hex="02C7"/>
  <outline>
    <contour>
      <point x="1278" y="2928" type="line"/>
      <point x="1934" y="3208" type="line"/>
      <point x="1946" y="3194" type="line"/>
      <point x="1414" y="2744" type="line"/>
      <point x="1146" y="2744" type="line"/>
      <point x="778" y="3194" type="line"/>
      <point x="790" y="3208" type="line"/>
    </contour>
  </outline>
</glyph>
<glyph name="tilde" format="2">
  <advance width="895"/>
  <unicode hex="02DC"/>
  <outline>
    <contour>
      <point x="470" y="1338" type="curve" smooth="yes"/>
      <point x="388" y="1338"/>
      <point x="342" y="1304"/>
      <point x="302" y="1200" type="curve"/>
      <point x="290" y="1200" type="line"/>
      <point x="330" y="1370"/>
      <point x="440" y="1454"/>
      <point x="538" y="1454" type="curve" smooth="yes"/>
      <point x="678" y="1454"/>
      <point x="758" y="1296"/>
      <point x="866" y="1296" type="curve" smooth="yes"/>
      <point x="948" y="1296"/>
      <point x="994" y="1330"/>
      <point x="1034" y="1434" type="curve"/>
      <point x="1046" y="1434" type="line"/>
      <point x="1006" y="1244"/>
      <point x="916" y="1180"/>
      <point x="818" y="1180" type="curve" smooth="yes"/>
      <point x="664" y="1180"/>
      <point x="592" y="1338"/>
    </contour>
  </outline>
</glyph>
<glyph name="uni1E9E" format="2">
  <advance width="1601"/>
  <unicode hex="1E9E"/>
  <outline>
    <contour>
      <point x="590" y="272" type="curve" smooth="yes"/>
      <point x="590" y="354"/>
      <point x="640" y="402"/>
      <point x="710" y="402" type="curve" smooth="yes"/>
      <point x="770" y="402"/>
      <point x="818" y="362"/>
      <point x="818" y="290" type="curve" smooth="yes"/>
      <point x="818" y="226"/>
      <point x="762" y="180"/>
      <point x="704" y="180" type="curve" smooth="yes"/>
      <point x="650" y="180"/>
      <point x="616" y="222"/>
      <point x="608" y="240" type="curve"/>
      <point x="614" y="130"/>
      <point x="700" y="2"/>
      <point x="922" y="2" type="curve" smooth="yes"/>
      <point x="1200" y="2"/>
      <point x="1330" y="232"/>
      <point x="1330" y="460" type="curve" smooth="yes"/>
      <point x="1330" y="608"/>
      <point x="1284" y="804"/>
      <point x="1026" y="804" type="curve"/>
      <point x="1026" y="814" type="line"/>
      <point x="1428" y="814"/>
      <point x="1542" y="680"/>
      <point x="1542" y="460" type="curve" smooth="yes"/>
      <point x="1542" y="160"/>
      <point x="1284" y="-20"/>
      <point x="962" y="-20" type="curve" smooth="yes"/>
      <point x="678" y="-20"/>
      <point x="590" y="128"/>
    </contour>
    <contour>
      <point x="-50" y="12" type="line"/>
      <point x="510" y="12" type="line"/>
      <point x="510" y="0" type="line"/>
      <point x="-50" y="0" type="line"/>
    </contour>
    <contour>
      <point x="1026" y="808" type="curve"/>
      <point x="1026" y="818" type="line"/>
      <point x="1384" y="818"/>
      <point x="1450" y="1114"/>
      <point x="1450" y="1242" type="curve" smooth="yes"/>
      <point x="1450" y="1346"/>
      <point x="1414" y="1510"/>
      <point x="1126" y="1510" type="curve" smooth="yes"/>
      <point x="778" y="1510"/>
      <point x="606" y="1188"/>
      <point x="530" y="862" type="curve" smooth="yes"/>
      <point x="330" y="0" type="line"/>
      <point x="130" y="0" type="line"/>
      <point x="330" y="882" type="line" smooth="yes"/>
      <point x="418" y="1268"/>
      <point x="720" y="1520"/>
      <point x="1126" y="1520" type="curve" smooth="yes"/>
      <point x="1512" y="1520"/>
      <point x="1662" y="1388"/>
      <point x="1662" y="1222" type="curve" smooth="yes"/>
      <point x="1662" y="1062"/>
      <point x="1528" y="808"/>
    </contour>
  </outline>
</glyph>
<glyph name="perthousand" format="2">
  <advance width="2939"/>
  <unicode hex="2030"/>
  <outline>
    <contour>
      <point x="2400" y="-20" type="curve" smooth="yes"/>
      <point x="2214" y="-20"/>
      <point x="2100" y="74"/>
      <point x="2100" y="280" type="curve" smooth="yes"/>
      <point x="2100" y="606"/>
      <point x="2314" y="860"/>
      <point x="2580" y="860" type="curve" smooth="yes"/>
      <point x="2766" y="860"/>
      <point x="2880" y="766"/>
      <point x="2880" y="560" type="curve" smooth="yes"/>
      <point x="2880" y="234"/>
      <point x="2666" y="-20"/>
    </contour>
    <contour>
      <point x="2580" y="848" type="curve" smooth="yes"/>
      <point x="2432" y="848"/>
      <point x="2300" y="504"/>
      <point x="2300" y="240" type="curve" smooth="yes"/>
      <point x="2300" y="100"/>
      <point x="2332" y="-8"/>
      <point x="2400" y="-8" type="curve" smooth="yes"/>
      <point x="2548" y="-8"/>
      <point x="2680" y="308"/>
      <point x="2680" y="572" type="curve" smooth="yes"/>
      <point x="2680" y="712"/>
      <point x="2648" y="848"/>
    </contour>
    <contour>
      <point x="1460" y="-20" type="curve" smooth="yes"/>
      <point x="1274" y="-20"/>
      <point x="1160" y="74"/>
      <point x="1160" y="280" type="curve" smooth="yes"/>
      <point x="1160" y="606"/>
      <point x="1374" y="860"/>
      <point x="1640" y="860" type="curve" smooth="yes"/>
      <point x="1826" y="860"/>
      <point x="1940" y="766"/>
      <point x="1940" y="560" type="curve" smooth="yes"/>
      <point x="1940" y="234"/>
      <point x="1726" y="-20"/>
    </contour>
    <contour>
      <point x="1640" y="848" type="curve" smooth="yes"/>
      <point x="1492" y="848"/>
      <point x="1360" y="504"/>
      <point x="1360" y="240" type="curve" smooth="yes"/>
      <point x="1360" y="100"/>
      <point x="1392" y="-8"/>
      <point x="1460" y="-8" type="curve" smooth="yes"/>
      <point x="1608" y="-8"/>
      <point x="1740" y="308"/>
      <point x="1740" y="572" type="curve" smooth="yes"/>
      <point x="1740" y="712"/>
      <point x="1708" y="848"/>
    </contour>
    <contour>
      <point x="1774" y="1500" type="line"/>
      <point x="1790" y="1500" type="line"/>
      <point x="402" y="0" type="line"/>
      <point x="386" y="0" type="line"/>
    </contour>
    <contour>
      <point x="550" y="640" type="curve" smooth="yes"/>
      <point x="364" y="640"/>
      <point x="250" y="734"/>
      <point x="250" y="940" type="curve" smooth="yes"/>
      <point x="250" y="1266"/>
      <point x="464" y="1520"/>
      <point x="730" y="1520" type="curve" smooth="yes"/>
      <point x="916" y="1520"/>
      <point x="1030" y="1426"/>
      <point x="1030" y="1220" type="curve" smooth="yes"/>
      <point x="1030" y="894"/>
      <point x="816" y="640"/>
    </contour>
    <contour>
      <point x="730" y="1508" type="curve" smooth="yes"/>
      <point x="582" y="1508"/>
      <point x="450" y="1164"/>
      <point x="450" y="900" type="curve" smooth="yes"/>
      <point x="450" y="760"/>
      <point x="482" y="652"/>
      <point x="550" y="652" type="curve" smooth="yes"/>
      <point x="698" y="652"/>
      <point x="830" y="996"/>
      <point x="830" y="1260" type="curve" smooth="yes"/>
      <point x="830" y="1400"/>
      <point x="798" y="1508"/>
    </contour>
  </outline>
</glyph>
<glyph name="uni203D" format="2">
  <advance width="1119"/>
  <unicode hex="203D"/>
  <outline>
    <contour>
      <point x="836" y="1058" type="curve" smooth="yes"/>
      <point x="796" y="846"/>
      <point x="624" y="716"/>
      <point x="544" y="416" type="curve"/>
      <point x="532" y="416" type="line"/>
      <point x="592" y="716"/>
      <point x="600" y="846"/>
      <point x="600" y="998" type="curve" smooth="yes"/>
      <point x="600" y="1110"/>
      <point x="630" y="1196"/>
      <point x="728" y="1196" type="curve" smooth="yes"/>
      <point x="798" y="1196"/>
      <point x="852" y="1140"/>
    </contour>
    <contour>
      <point x="1008" y="1220" type="curve" smooth="yes"/>
      <point x="1008" y="1368"/>
      <point x="930" y="1506"/>
      <point x="752" y="1506" type="curve" smooth="yes"/>
      <point x="512" y="1506"/>
      <point x="352" y="1336"/>
      <point x="342" y="1224" type="curve"/>
      <point x="354" y="1242"/>
      <point x="380" y="1280"/>
      <point x="434" y="1280" type="curve" smooth="yes"/>
      <point x="492" y="1280"/>
      <point x="548" y="1240"/>
      <point x="548" y="1170" type="curve" smooth="yes"/>
      <point x="548" y="1090"/>
      <point x="484" y="1058"/>
      <point x="434" y="1058" type="curve" smooth="yes"/>
      <point x="374" y="1058"/>
      <point x="320" y="1100"/>
      <point x="320" y="1182" type="curve" smooth="yes"/>
      <point x="320" y="1346"/>
      <point x="508" y="1520"/>
      <point x="772" y="1520" type="curve" smooth="yes"/>
      <point x="994" y="1520"/>
      <point x="1210" y="1420"/>
      <point x="1210" y="1180" type="curve" smooth="yes"/>
      <point x="1210" y="900"/>
      <point x="900" y="670"/>
      <point x="626" y="670" type="curve"/>
      <point x="626" y="680" type="line"/>
      <point x="812" y="742"/>
      <point x="1008" y="974"/>
    </contour>
    <component base="period" xOffset="318"/>
  </outline>
</glyph>
<glyph name="uniFB01" format="2">
  <advance width="1185"/>
  <unicode hex="FB01"/>
  <outline>
    <contour>
      <point x="1146" y="326" type="line"/>
      <point x="1070" y="126"/>
      <point x="952" y="-20"/>
      <point x="790" y="-20" type="curve" smooth="yes"/>
      <point x="696" y="-20"/>
      <point x="648" y="26"/>
      <point x="648" y="126" type="curve" smooth="yes"/>
      <point x="648" y="136"/>
      <point x="650" y="158"/>
      <point x="652" y="170" type="curve" smooth="yes"/>
      <point x="818" y="908" type="line"/>
      <point x="104" y="908" type="line"/>
      <point x="104" y="920" type="line"/>
      <point x="1002" y="920" type="line"/>
      <point x="806" y="80" type="line" smooth="yes"/>
      <point x="804" y="68"/>
      <point x="802" y="54"/>
      <point x="802" y="44" type="curve" smooth="yes"/>
      <point x="802" y="22"/>
      <point x="812" y="6"/>
      <point x="838" y="6" type="curve" smooth="yes"/>
      <point x="956" y="6"/>
      <point x="1070" y="150"/>
      <point x="1136" y="330" type="curve"/>
    </contour>
    <contour>
      <point x="1050" y="1364" type="curve"/>
      <point x="1040" y="1424"/>
      <point x="982" y="1508"/>
      <point x="806" y="1508" type="curve" smooth="yes"/>
      <point x="626" y="1508"/>
      <point x="528" y="1324"/>
      <point x="484" y="1080" type="curve" smooth="yes"/>
      <point x="282" y="-24" type="line" smooth="yes"/>
      <point x="236" y="-274"/>
      <point x="68" y="-520"/>
      <point x="-192" y="-520" type="curve" smooth="yes"/>
      <point x="-354" y="-520"/>
      <point x="-418" y="-406"/>
      <point x="-418" y="-322" type="curve" smooth="yes"/>
      <point x="-418" y="-240"/>
      <point x="-364" y="-198"/>
      <point x="-304" y="-198" type="curve" smooth="yes"/>
      <point x="-254" y="-198"/>
      <point x="-192" y="-226"/>
      <point x="-192" y="-306" type="curve" smooth="yes"/>
      <point x="-192" y="-386"/>
      <point x="-254" y="-418"/>
      <point x="-312" y="-418" type="curve" smooth="yes"/>
      <point x="-348" y="-418"/>
      <point x="-386" y="-394"/>
      <point x="-396" y="-364" type="curve"/>
      <point x="-386" y="-424"/>
      <point x="-328" y="-508"/>
      <point x="-192" y="-508" type="curve" smooth="yes"/>
      <point x="-52" y="-508"/>
      <point x="48" y="-324"/>
      <point x="90" y="-80" type="curve" smooth="yes"/>
      <point x="290" y="1024" type="line" smooth="yes"/>
      <point x="334" y="1276"/>
      <point x="506" y="1520"/>
      <point x="806" y="1520" type="curve" smooth="yes"/>
      <point x="1008" y="1520"/>
      <point x="1072" y="1406"/>
      <point x="1072" y="1322" type="curve" smooth="yes"/>
      <point x="1072" y="1240"/>
      <point x="1018" y="1198"/>
      <point x="958" y="1198" type="curve" smooth="yes"/>
      <point x="908" y="1198"/>
      <point x="846" y="1226"/>
      <point x="846" y="1306" type="curve" smooth="yes"/>
      <point x="846" y="1386"/>
      <point x="908" y="1418"/>
      <point x="966" y="1418" type="curve" smooth="yes"/>
      <point x="1002" y="1418"/>
      <point x="1040" y="1392"/>
    </contour>
  </outline>
</glyph>
<glyph name="uniFB02" format="2">
  <advance width="2534"/>
  <unicode hex="FB02"/>
  <outline>
    <contour>
      <point x="2454" y="668" type="line"/>
      <point x="2298" y="258"/>
      <point x="2056" y="-40"/>
      <point x="1724" y="-40" type="curve" smooth="yes"/>
      <point x="1532" y="-40"/>
      <point x="1434" y="54"/>
      <point x="1434" y="258" type="curve" smooth="yes"/>
      <point x="1434" y="278"/>
      <point x="1438" y="324"/>
      <point x="1442" y="348" type="curve" smooth="yes"/>
      <point x="2048" y="2990" type="line"/>
      <point x="2454" y="3154" type="line"/>
      <point x="1758" y="164" type="line" smooth="yes"/>
      <point x="1754" y="140"/>
      <point x="1748" y="110"/>
      <point x="1748" y="90" type="curve" smooth="yes"/>
      <point x="1748" y="44"/>
      <point x="1768" y="12"/>
      <point x="1822" y="12" type="curve" smooth="yes"/>
      <point x="2072" y="12"/>
      <point x="2308" y="332"/>
      <point x="2434" y="676" type="curve"/>
    </contour>
    <contour>
      <point x="212" y="1884" type="line"/>
      <point x="1524" y="1884" type="line"/>
      <point x="1524" y="1860" type="line"/>
      <point x="212" y="1860" type="line"/>
    </contour>
    <contour>
      <point x="2154" y="2708" type="curve" smooth="yes"/>
      <point x="2154" y="2540"/>
      <point x="2044" y="2454"/>
      <point x="1922" y="2454" type="curve" smooth="yes"/>
      <point x="1820" y="2454"/>
      <point x="1692" y="2510"/>
      <point x="1692" y="2674" type="curve" smooth="yes"/>
      <point x="1692" y="2838"/>
      <point x="1820" y="2904"/>
      <point x="1938" y="2904" type="curve" smooth="yes"/>
      <point x="2012" y="2904"/>
      <point x="2090" y="2852"/>
      <point x="2110" y="2794" type="curve"/>
      <point x="2090" y="2916"/>
      <point x="2004" y="3088"/>
      <point x="1692" y="3088" type="curve" smooth="yes"/>
      <point x="1364" y="3088"/>
      <point x="1082" y="2712"/>
      <point x="992" y="2212" type="curve" smooth="yes"/>
      <point x="578" y="-50" type="line" smooth="yes"/>
      <point x="484" y="-562"/>
      <point x="138" y="-1064"/>
      <point x="-394" y="-1064" type="curve" smooth="yes"/>
      <point x="-726" y="-1064"/>
      <point x="-856" y="-832"/>
      <point x="-856" y="-660" type="curve" smooth="yes"/>
      <point x="-856" y="-492"/>
      <point x="-744" y="-406"/>
      <point x="-622" y="-406" type="curve" smooth="yes"/>
      <point x="-520" y="-406"/>
      <point x="-394" y="-462"/>
      <point x="-394" y="-626" type="curve" smooth="yes"/>
      <point x="-394" y="-790"/>
      <point x="-520" y="-856"/>
      <point x="-638" y="-856" type="curve" smooth="yes"/>
      <point x="-712" y="-856"/>
      <point x="-792" y="-808"/>
      <point x="-812" y="-746" type="curve"/>
      <point x="-792" y="-868"/>
      <point x="-672" y="-1040"/>
      <point x="-394" y="-1040" type="curve" smooth="yes"/>
      <point x="-108" y="-1040"/>
      <point x="98" y="-664"/>
      <point x="184" y="-164" type="curve" smooth="yes"/>
      <point x="594" y="2098" type="line" smooth="yes"/>
      <point x="684" y="2614"/>
      <point x="1118" y="3112"/>
      <point x="1692" y="3112" type="curve" smooth="yes"/>
      <point x="2060" y="3112"/>
      <point x="2154" y="2892"/>
    </contour>
  </outline>
</glyph>
<glyph name="uniFB03" format="2">
  <advance width="1745"/>
  <unicode hex="FB03"/>
  <outline>
    <contour>
      <point x="1706" y="326" type="line"/>
      <point x="1630" y="126"/>
      <point x="1512" y="-20"/>
      <point x="1350" y="-20" type="curve" smooth="yes"/>
      <point x="1256" y="-20"/>
      <point x="1208" y="26"/>
      <point x="1208" y="126" type="curve" smooth="yes"/>
      <point x="1208" y="136"/>
      <point x="1210" y="158"/>
      <point x="1212" y="170" type="curve" smooth="yes"/>
      <point x="1378" y="908" type="line"/>
      <point x="104" y="908" type="line"/>
      <point x="104" y="920" type="line"/>
      <point x="1562" y="920" type="line"/>
      <point x="1366" y="80" type="line" smooth="yes"/>
      <point x="1364" y="68"/>
      <point x="1362" y="54"/>
      <point x="1362" y="44" type="curve" smooth="yes"/>
      <point x="1362" y="22"/>
      <point x="1372" y="6"/>
      <point x="1398" y="6" type="curve" smooth="yes"/>
      <point x="1516" y="6"/>
      <point x="1630" y="150"/>
      <point x="1696" y="330" type="curve"/>
    </contour>
    <contour>
      <point x="1632" y="1322" type="curve" smooth="yes"/>
      <point x="1632" y="1240"/>
      <point x="1578" y="1198"/>
      <point x="1518" y="1198" type="curve" smooth="yes"/>
      <point x="1468" y="1198"/>
      <point x="1406" y="1226"/>
      <point x="1406" y="1306" type="curve" smooth="yes"/>
      <point x="1406" y="1386"/>
      <point x="1468" y="1418"/>
      <point x="1526" y="1418" type="curve" smooth="yes"/>
      <point x="1562" y="1418"/>
      <point x="1600" y="1392"/>
      <point x="1610" y="1364" type="curve"/>
      <point x="1600" y="1424"/>
      <point x="1542" y="1508"/>
      <point x="1366" y="1508" type="curve" smooth="yes"/>
      <point x="1186" y="1508"/>
      <point x="1088" y="1324"/>
      <point x="1044" y="1080" type="curve" smooth="yes"/>
      <point x="864" y="76" type="line" smooth="yes"/>
      <point x="820" y="-174"/>
      <point x="650" y="-420"/>
      <point x="370" y="-420" type="curve" smooth="yes"/>
      <point x="188" y="-420"/>
      <point x="124" y="-306"/>
      <point x="124" y="-222" type="curve" smooth="yes"/>
      <point x="124" y="-140"/>
      <point x="178" y="-98"/>
      <point x="238" y="-98" type="curve" smooth="yes"/>
      <point x="288" y="-98"/>
      <point x="350" y="-126"/>
      <point x="350" y="-206" type="curve" smooth="yes"/>
      <point x="350" y="-286"/>
      <point x="288" y="-318"/>
      <point x="230" y="-318" type="curve" smooth="yes"/>
      <point x="194" y="-318"/>
      <point x="156" y="-294"/>
      <point x="146" y="-264" type="curve"/>
      <point x="156" y="-324"/>
      <point x="214" y="-408"/>
      <point x="370" y="-408" type="curve" smooth="yes"/>
      <point x="530" y="-408"/>
      <point x="630" y="-224"/>
      <point x="672" y="20" type="curve" smooth="yes"/>
      <point x="850" y="1024" type="line" smooth="yes"/>
      <point x="894" y="1276"/>
      <point x="1066" y="1520"/>
      <point x="1366" y="1520" type="curve" smooth="yes"/>
      <point x="1562" y="1520"/>
      <point x="1632" y="1416"/>
    </contour>
    <contour>
      <point x="988" y="1264" type="curve"/>
      <point x="978" y="1324"/>
      <point x="920" y="1408"/>
      <point x="764" y="1408" type="curve" smooth="yes"/>
      <point x="604" y="1408"/>
      <point x="506" y="1224"/>
      <point x="462" y="980" type="curve" smooth="yes"/>
      <point x="282" y="-24" type="line" smooth="yes"/>
      <point x="236" y="-276"/>
      <point x="68" y="-520"/>
      <point x="-192" y="-520" type="curve" smooth="yes"/>
      <point x="-354" y="-520"/>
      <point x="-418" y="-406"/>
      <point x="-418" y="-322" type="curve" smooth="yes"/>
      <point x="-418" y="-240"/>
      <point x="-364" y="-198"/>
      <point x="-304" y="-198" type="curve" smooth="yes"/>
      <point x="-254" y="-198"/>
      <point x="-192" y="-226"/>
      <point x="-192" y="-306" type="curve" smooth="yes"/>
      <point x="-192" y="-386"/>
      <point x="-254" y="-418"/>
      <point x="-312" y="-418" type="curve" smooth="yes"/>
      <point x="-348" y="-418"/>
      <point x="-386" y="-394"/>
      <point x="-396" y="-364" type="curve"/>
      <point x="-386" y="-424"/>
      <point x="-328" y="-508"/>
      <point x="-192" y="-508" type="curve" smooth="yes"/>
      <point x="-52" y="-508"/>
      <point x="48" y="-324"/>
      <point x="90" y="-80" type="curve" smooth="yes"/>
      <point x="268" y="924" type="line" smooth="yes"/>
      <point x="312" y="1176"/>
      <point x="484" y="1420"/>
      <point x="764" y="1420" type="curve" smooth="yes"/>
      <point x="946" y="1420"/>
      <point x="1010" y="1306"/>
      <point x="1010" y="1222" type="curve" smooth="yes"/>
      <point x="1010" y="1140"/>
      <point x="956" y="1098"/>
      <point x="896" y="1098" type="curve" smooth="yes"/>
      <point x="846" y="1098"/>
      <point x="784" y="1126"/>
      <point x="784" y="1206" type="curve" smooth="yes"/>
      <point x="784" y="1286"/>
      <point x="846" y="1318"/>
      <point x="904" y="1318" type="curve" smooth="yes"/>
      <point x="940" y="1318"/>
      <point x="978" y="1292"/>
    </contour>
  </outline>
</glyph>
<glyph name="uniFB04" format="2">
  <advance width="1797"/>
  <unicode hex="FB04"/>
  <outline>
    <contour>
      <point x="1758" y="326" type="line"/>
      <point x="1682" y="126"/>
      <point x="1564" y="-20"/>
      <point x="1402" y="-20" type="curve" smooth="yes"/>
      <point x="1308" y="-20"/>
      <point x="1260" y="26"/>
      <point x="1260" y="126" type="curve" smooth="yes"/>
      <point x="1260" y="136"/>
      <point x="1262" y="158"/>
      <point x="1264" y="170" type="curve" smooth="yes"/>
      <point x="1560" y="1460" type="line"/>
      <point x="1758" y="1540" type="line"/>
      <point x="1418" y="80" type="line" smooth="yes"/>
      <point x="1416" y="68"/>
      <point x="1414" y="54"/>
      <point x="1414" y="44" type="curve" smooth="yes"/>
      <point x="1414" y="22"/>
      <point x="1424" y="6"/>
      <point x="1450" y="6" type="curve" smooth="yes"/>
      <point x="1572" y="6"/>
      <point x="1686" y="162"/>
      <point x="1748" y="330" type="curve"/>
    </contour>
    <contour>
      <point x="104" y="920" type="line"/>
      <point x="1304" y="920" type="line"/>
      <point x="1304" y="908" type="line"/>
      <point x="104" y="908" type="line"/>
    </contour>
    <contour>
      <point x="1590" y="1364" type="curve"/>
      <point x="1580" y="1424"/>
      <point x="1538" y="1508"/>
      <point x="1386" y="1508" type="curve" smooth="yes"/>
      <point x="1226" y="1508"/>
      <point x="1088" y="1324"/>
      <point x="1044" y="1080" type="curve" smooth="yes"/>
      <point x="864" y="76" type="line" smooth="yes"/>
      <point x="818" y="-176"/>
      <point x="658" y="-420"/>
      <point x="378" y="-420" type="curve" smooth="yes"/>
      <point x="196" y="-420"/>
      <point x="132" y="-306"/>
      <point x="132" y="-222" type="curve" smooth="yes"/>
      <point x="132" y="-140"/>
      <point x="186" y="-98"/>
      <point x="246" y="-98" type="curve" smooth="yes"/>
      <point x="296" y="-98"/>
      <point x="358" y="-126"/>
      <point x="358" y="-206" type="curve" smooth="yes"/>
      <point x="358" y="-286"/>
      <point x="296" y="-318"/>
      <point x="238" y="-318" type="curve" smooth="yes"/>
      <point x="202" y="-318"/>
      <point x="164" y="-294"/>
      <point x="154" y="-264" type="curve"/>
      <point x="164" y="-324"/>
      <point x="222" y="-408"/>
      <point x="378" y="-408" type="curve" smooth="yes"/>
      <point x="538" y="-408"/>
      <point x="638" y="-224"/>
      <point x="680" y="20" type="curve" smooth="yes"/>
      <point x="850" y="1024" type="line" smooth="yes"/>
      <point x="894" y="1276"/>
      <point x="1106" y="1520"/>
      <point x="1386" y="1520" type="curve" smooth="yes"/>
      <point x="1568" y="1520"/>
      <point x="1612" y="1406"/>
      <point x="1612" y="1322" type="curve" smooth="yes"/>
      <point x="1612" y="1240"/>
      <point x="1558" y="1198"/>
      <point x="1498" y="1198" type="curve" smooth="yes"/>
      <point x="1448" y="1198"/>
      <point x="1386" y="1226"/>
      <point x="1386" y="1306" type="curve" smooth="yes"/>
      <point x="1386" y="1386"/>
      <point x="1448" y="1418"/>
      <point x="1506" y="1418" type="curve" smooth="yes"/>
      <point x="1542" y="1418"/>
      <point x="1580" y="1392"/>
    </contour>
    <contour>
      <point x="988" y="1264" type="curve"/>
      <point x="978" y="1324"/>
      <point x="920" y="1408"/>
      <point x="764" y="1408" type="curve" smooth="yes"/>
      <point x="604" y="1408"/>
      <point x="506" y="1224"/>
      <point x="462" y="980" type="curve" smooth="yes"/>
      <point x="282" y="-24" type="line" smooth="yes"/>
      <point x="236" y="-276"/>
      <point x="68" y="-520"/>
      <point x="-192" y="-520" type="curve" smooth="yes"/>
      <point x="-354" y="-520"/>
      <point x="-418" y="-406"/>
      <point x="-418" y="-322" type="curve" smooth="yes"/>
      <point x="-418" y="-240"/>
      <point x="-364" y="-198"/>
      <point x="-304" y="-198" type="curve" smooth="yes"/>
      <point x="-254" y="-198"/>
      <point x="-192" y="-226"/>
      <point x="-192" y="-306" type="curve" smooth="yes"/>
      <point x="-192" y="-386"/>
      <point x="-254" y="-418"/>
      <point x="-312" y="-418" type="curve" smooth="yes"/>
      <point x="-348" y="-418"/>
      <point x="-386" y="-394"/>
      <point x="-396" y="-364" type="curve"/>
      <point x="-386" y="-424"/>
      <point x="-328" y="-508"/>
      <point x="-192" y="-508" type="curve" smooth="yes"/>
      <point x="-52" y="-508"/>
      <point x="48" y="-324"/>
      <point x="90" y="-80" type="curve" smooth="yes"/>
      <point x="268" y="924" type="line" smooth="yes"/>
      <point x="312" y="1176"/>
      <point x="484" y="1420"/>
      <point x="764" y="1420" type="curve" smooth="yes"/>
      <point x="946" y="1420"/>
      <point x="1010" y="1306"/>
      <point x="1010" y="1222" type="curve" smooth="yes"/>
      <point x="1010" y="1140"/>
      <point x="956" y="1098"/>
      <point x="896" y="1098" type="curve" smooth="yes"/>
      <point x="846" y="1098"/>
      <point x="784" y="1126"/>
      <point x="784" y="1206" type="curve" smooth="yes"/>
      <point x="784" y="1286"/>
      <point x="846" y="1318"/>
      <point x="904" y="1318" type="curve" smooth="yes"/>
      <point x="940" y="1318"/>
      <point x="978" y="1292"/>
    </contour>
  </outline>
</glyph>
<glyph name="J.alt" format="2">
  <advance width="1071"/>
  <outline>
    <contour>
      <point x="672" y="1500" type="line"/>
      <point x="1302" y="1500" type="line"/>
      <point x="1302" y="1488" type="line"/>
      <point x="672" y="1488" type="line"/>
    </contour>
    <contour>
      <point x="912" y="1500" type="line"/>
      <point x="1102" y="1500" type="line"/>
      <point x="882" y="560" type="line" smooth="yes"/>
      <point x="810" y="256"/>
      <point x="624" y="-20"/>
      <point x="302" y="-20" type="curve" smooth="yes"/>
      <point x="88" y="-20"/>
      <point x="10" y="130"/>
      <point x="10" y="270" type="curve" smooth="yes"/>
      <point x="10" y="414"/>
      <point x="84" y="480"/>
      <point x="164" y="480" type="curve" smooth="yes"/>
      <point x="234" y="480"/>
      <point x="296" y="444"/>
      <point x="296" y="352" type="curve" smooth="yes"/>
      <point x="296" y="282"/>
      <point x="242" y="226"/>
      <point x="154" y="226" type="curve" smooth="yes"/>
      <point x="94" y="226"/>
      <point x="42" y="260"/>
      <point x="24" y="306" type="curve"/>
      <point x="10" y="148"/>
      <point x="90" y="-8"/>
      <point x="302" y="-8" type="curve" smooth="yes"/>
      <point x="544" y="-8"/>
      <point x="634" y="232"/>
      <point x="692" y="500" type="curve" smooth="yes"/>
    </contour>
  </outline>
</glyph>
<glyph name="v.alt" format="2">
  <advance width="911"/>
  <outline>
    <contour>
      <point x="330" y="950" type="curve"/>
      <point x="334" y="942" type="line"/>
      <point x="252" y="896"/>
      <point x="230" y="826"/>
      <point x="230" y="762" type="curve" smooth="yes"/>
      <point x="230" y="600"/>
      <point x="428" y="518"/>
      <point x="428" y="270" type="curve" smooth="yes"/>
      <point x="428" y="236"/>
      <point x="418" y="122"/>
      <point x="414" y="76" type="curve"/>
      <point x="728" y="246"/>
      <point x="890" y="428"/>
      <point x="890" y="688" type="curve" smooth="yes"/>
      <point x="890" y="742"/>
      <point x="882" y="808"/>
      <point x="866" y="832" type="curve"/>
      <point x="862" y="784"/>
      <point x="818" y="710"/>
      <point x="736" y="710" type="curve" smooth="yes"/>
      <point x="656" y="710"/>
      <point x="624" y="774"/>
      <point x="624" y="824" type="curve" smooth="yes"/>
      <point x="624" y="884"/>
      <point x="672" y="938"/>
      <point x="746" y="938" type="curve" smooth="yes"/>
      <point x="872" y="938"/>
      <point x="902" y="810"/>
      <point x="902" y="688" type="curve" smooth="yes"/>
      <point x="902" y="350"/>
      <point x="632" y="166"/>
      <point x="242" y="-24" type="curve"/>
      <point x="234" y="-14" type="line"/>
      <point x="238" y="30"/>
      <point x="246" y="172"/>
      <point x="246" y="212" type="curve" smooth="yes"/>
      <point x="246" y="366"/>
      <point x="60" y="498"/>
      <point x="60" y="646" type="curve" smooth="yes"/>
      <point x="60" y="806"/>
      <point x="230" y="902"/>
    </contour>
  </outline>
</glyph>
